<svg xmlns="http://www.w3.org/2000/svg" width="34.056" height="31.544" viewBox="0 0 34.056 31.544"><path d="M-107.112-31.071A14.273,14.273,0,0,1-121.37-16.815a14.185,14.185,0,0,1-12.773-7.915l.672-.334a13.439,13.439,0,0,0,12.1,7.5,13.523,13.523,0,0,0,13.508-13.506A13.524,13.524,0,0,0-121.37-44.579,13.444,13.444,0,0,0-133.459-37.1l-.671-.335a14.339,14.339,0,0,1,3.167-4.186l-.995-.995.53-.531,1.03,1.031a14.189,14.189,0,0,1,8.651-3.2v-2.293h-1.67v-.75h4.091v.75H-121v2.3A14.266,14.266,0,0,1-107.112-31.071Zm-22.955-4.037h-8.7v.75h8.7Zm0,6.157h-8.7v.75h8.7Zm-2.4-3.078h-8.7v.75h8.7Zm6.133-3.929a6.853,6.853,0,0,0,0,9.681,6.823,6.823,0,0,0,4.839,2,6.823,6.823,0,0,0,4.841-2,6.786,6.786,0,0,0,2.01-4.825v-.074l-.749.074a6.048,6.048,0,0,1-1.79,4.3,6.1,6.1,0,0,1-8.62,0,6.1,6.1,0,0,1,0-8.62,6.1,6.1,0,0,1,4.325-1.79v-.75h-.1A6.794,6.794,0,0,0-126.336-35.958Zm10.18-.086-3.683,3.683a2.065,2.065,0,0,1,.421,1.243,2.089,2.089,0,0,1-2.087,2.086,2.089,2.089,0,0,1-2.087-2.086,2.089,2.089,0,0,1,2.087-2.087,2.069,2.069,0,0,1,1.118.331l3.7-3.7Zm-4.012,4.926a1.339,1.339,0,0,0-1.337-1.337,1.339,1.339,0,0,0-1.337,1.337,1.338,1.338,0,0,0,1.337,1.336A1.338,1.338,0,0,0-120.168-31.118Zm-1.164,10.385a10.35,10.35,0,0,0,10.338-10.338A10.35,10.35,0,0,0-121.332-41.41a10.236,10.236,0,0,0-7.373,3.082l.535.525a9.5,9.5,0,0,1,6.838-2.857,9.6,9.6,0,0,1,9.588,9.589,9.6,9.6,0,0,1-9.588,9.588,9.5,9.5,0,0,1-6.8-2.818l-.532.528A10.242,10.242,0,0,0-121.332-20.733Z" transform="translate(141.168 48.359)" fill="#fff"></path></svg>