<svg xmlns="http://www.w3.org/2000/svg" width="32.567" height="35.638" viewBox="0 0 32.567 35.638"><path d="M26.951-291.5l0,4.308a3.475,3.475,0,0,1-3.344-3.79,3.991,3.991,0,0,1,1.265-3.147,4.609,4.609,0,0,0,1.43-3.545c0-2.046-2.02-3.269-3.973-3.269a4.908,4.908,0,0,0-4.194,2.92,6.319,6.319,0,0,0-1.534-.612l-.009-3.34a1.409,1.409,0,0,0,1.04-1.355,1.412,1.412,0,0,0-1.411-1.41,1.412,1.412,0,0,0-1.41,1.41,1.408,1.408,0,0,0,1.031,1.352l.009,3.2a6.438,6.438,0,0,0-.848-.062h-.024l-1.067,0a6.51,6.51,0,0,0-.819.061l-.007-1.318a1.408,1.408,0,0,0,1.039-1.354,1.412,1.412,0,0,0-1.41-1.411,1.412,1.412,0,0,0-1.41,1.411,1.406,1.406,0,0,0,1.031,1.352l.008,1.467a6.428,6.428,0,0,0-4.826,6.209v15.934l-.843.843a4,4,0,0,0-1.18,2.849v3.045h.75V-272.8a3.257,3.257,0,0,1,.961-2.319l.616-.617,6.271,0v6.627h.75v-6.627l6.277,0,.611.611a3.262,3.262,0,0,1,.96,2.319v3.045h.75V-272.8a4,4,0,0,0-1.18-2.849l-.843-.843V-281.8h5.53l-.007,12.509,11.122-.013v-22.2Zm-11.392-11.83a.661.661,0,0,1,.66-.66.662.662,0,0,1,.661.66.662.662,0,0,1-.661.661A.662.662,0,0,1,15.559-303.331Zm-3.506,1.88a.661.661,0,0,1,.66-.661.661.661,0,0,1,.66.661.661.661,0,0,1-.66.66A.661.661,0,0,1,12.053-301.451Zm10.274,1.257c1.585,0,3.223.942,3.223,2.519a3.833,3.833,0,0,1-1.237,3.042,4.725,4.725,0,0,0-1.458,3.65,4.222,4.222,0,0,0,4.093,4.544v1.264H21.416v-7.252a6.374,6.374,0,0,0-1.887-4.545,6.554,6.554,0,0,0-.765-.644A4.187,4.187,0,0,1,22.327-300.194Zm-8.415,2.1,1.068,0H15a5.625,5.625,0,0,1,4,1.652,5.619,5.619,0,0,1,1.629,3.643H8.285A5.675,5.675,0,0,1,13.912-298.09ZM8.266-276.483v-15.565h12.4v15.571Zm13.15-6.067v-1.875h5.531v1.875Zm15.9,12.5-9.622.011.012-20.709h9.61Zm-2.283-10.453H29.973v8.359h5.055Zm-.75,7.609H30.723v-6.859h3.555Zm-24.12-5.386h8.616v-4.087H10.158Zm.75-3.337h7.116v2.587H10.908ZM34.292-287.7H30.708v-.75h3.584Zm0,1.672H30.708v-.75h3.584Zm0,1.669H30.708v-.75h3.584ZM11.968-280.7h1.06v.75h-1.06Zm1.97,0H15v.75h-1.06Zm1.966,0h1.06v.75H15.9Z" transform="translate(-5.493 304.741)" fill="#fff"></path></svg>