<svg xmlns="http://www.w3.org/2000/svg" width="30.264" height="35.231" viewBox="0 0 30.264 35.231"><path d="M-61.49-30.114v-5.541h-2.472a10.336,10.336,0,0,0-1.137-2.68l1.6-1.842-3.491-3.576-1.9,1.54a10.474,10.474,0,0,0-2.731-1.164l-.019-2.43h-4.177V-47.82h-.75v3.32a5.712,5.712,0,0,0-3.177-1.305h-.007a4.906,4.906,0,0,0-4.706,2.51,4.519,4.519,0,0,0-2.98,1.269,4.525,4.525,0,0,0-1.4,3.193c0,.1,0,.189,0,.272,0,.111,0,.221.013.331a5.575,5.575,0,0,0-2.932,5.21,6.953,6.953,0,0,0,1.275,4.058,5.132,5.132,0,0,0-.076,1.726,5.407,5.407,0,0,0,5.019,4.8,4.25,4.25,0,0,0,.261.5l.013-.008A5.191,5.191,0,0,0-80.869-19.4h.015a7.029,7.029,0,0,0,4.283-1.318v3.349h.75V-19.38h4.177l.018-2.788a10.44,10.44,0,0,0,2.714-1.155l1.9,1.746,3.494-3.578-1.6-2.051a11.743,11.743,0,0,0,1.158-2.921Zm-14.331-5.418h.994a2.437,2.437,0,0,1,.3,0,2.619,2.619,0,0,1,2.464,2.759,2.628,2.628,0,0,1-2.781,2.462h-.973Zm-5.027,15.385h-.014a4.451,4.451,0,0,1-4.066-2.8,3.482,3.482,0,0,1-.237-1.21,3.576,3.576,0,0,1,3.614-3.464c.037,0,.079,0,.111,0a.855.855,0,0,0,.842-.886,1.5,1.5,0,0,1,.467-1.147,2.139,2.139,0,0,1,1.521-.51l.051-.748a2.864,2.864,0,0,0-2.084.71,2.274,2.274,0,0,0-.7,1.739c0,.044-.055.094-.146.09a4.3,4.3,0,0,0-3.142,1.256c-.777-.3-1.529-.885-1.529-1.6h-.75a2.636,2.636,0,0,0,1.772,2.2,4.307,4.307,0,0,0-.773,2.353,4.229,4.229,0,0,0,.12.933,4.67,4.67,0,0,1-4.016-4.1,4.4,4.4,0,0,1,.1-1.625l.043-.173-.107-.143A6.2,6.2,0,0,1-91-33.018a4.738,4.738,0,0,1,2.71-4.618l.28-.1-.036-.3a4.785,4.785,0,0,1-.035-.545c0-.079,0-.159,0-.239a3.821,3.821,0,0,1,3.4-3.69,3.961,3.961,0,0,0-.059.676,4.638,4.638,0,0,0,1.121,2.812,2.505,2.505,0,0,0-1.892,2.394l.75.018a1.765,1.765,0,0,1,1.827-1.747h.011a4.642,4.642,0,0,0,2.627.972l.035-.749A3.9,3.9,0,0,1-84-41.849a3.14,3.14,0,0,1,.142-.927l.01-.032c.43-1.331,2.279-2.353,4.039-2.25a4.992,4.992,0,0,1,3.235,1.563v3.108a3.418,3.418,0,0,1-3.358-2.286l-.71.242a4.176,4.176,0,0,0,3.935,2.81c.044,0,.088-.007.133-.008v5.4a3.116,3.116,0,0,0-2.274-1.073,4.3,4.3,0,0,0-3.136,1.38,2.715,2.715,0,0,1-3.31.809,2.5,2.5,0,0,0-2.381-2.262l-.035.749a1.757,1.757,0,0,1,1.686,1.661,1.461,1.461,0,0,1-1.457,1.425c-.058,0-.113,0-.169-.009l-.086.745c.067.008.133.012.2.014h.053a2.2,2.2,0,0,0,2.093-1.552,2.84,2.84,0,0,0,1.174.285A3.92,3.92,0,0,0-81.44-33.4a3.519,3.519,0,0,1,2.573-1.15,2.393,2.393,0,0,1,1.789.871,3.825,3.825,0,0,1,.507.774v6.8a3.654,3.654,0,0,0-4.065,2.318l.7.26a2.906,2.906,0,0,1,3.362-1.817v3.657A5.962,5.962,0,0,1-80.848-20.147ZM-64.62-30.584a10.986,10.986,0,0,1-1.268,3.219l-.13.22,1.508,1.934-2.529,2.59-1.788-1.642-.243.156a9.741,9.741,0,0,1-3.016,1.282l-.286.068-.017,2.627h-3.432v-9.431h.952c.065,0,.129.005.192.005a3.371,3.371,0,0,0,3.359-3.175,3.37,3.37,0,0,0-3.171-3.55,3.078,3.078,0,0,0-.359,0h-.973v-8.775h3.433l.018,2.269.286.068a9.751,9.751,0,0,1,3.016,1.282l.228.146,1.788-1.448,2.531,2.593L-66.03-38.4l.151.236a9.658,9.658,0,0,1,1.261,2.975l.068.289h2.31v4.037l-2.314-.011Zm-11.2-18.43h-.75v-1.195h.75Zm-.75,32.842h.75v1.194h-.75Zm9.707-16.72a7.429,7.429,0,0,1-7.421,7.421v-.75a6.678,6.678,0,0,0,6.671-6.671,6.679,6.679,0,0,0-6.671-6.671v-.75A7.429,7.429,0,0,1-66.864-32.892Z" transform="translate(91.754 50.209)" fill="#fff"></path></svg>