<svg xmlns:xlink="http://www.w3.org/1999/xlink" xmlns="http://www.w3.org/2000/svg" width="500" height="122.1" viewBox="0 0 500 122.1"><g transform="translate(-24016 5978.551)"><path d="M500,121H484.5V86.4H432v33.9H416.4c-.1-1.7-.3-3.3-.3-4.9V55.5c0-12.9,6.4-19.3,19.3-19.3,14.3,0,28.6.4,42.9-.1,10.4-.4,17.7,3.2,21.6,13Q500.05,84.95,500,121ZM484.3,72.5c0-6.6.2-13.1-.2-19.5-.1-1.2-2.5-3.1-3.9-3.1q-22.2-.3-44.4,0c-1.3,0-3.7,1.7-3.8,2.8-.3,6.6-.2,13.1-.2,19.9C449.6,72.5,466.6,72.5,484.3,72.5Z" transform="translate(24016 -5978.551)" fill="#fff"/><path d="M64,122c-2.7-.8-5.5-1.4-8.1-2.4C34.4,112.2,22,87.5,31.8,67,42.6,44.3,56.1,22.9,69,0c3.1,5.4,5.6,9.8,8.1,14.2C85.7,29,93.9,44.1,102.9,58.7c16.2,26.4.6,57.9-26.7,62.6a4.184,4.184,0,0,0-1.2.8C71.3,122,67.7,122,64,122Zm5.1-93.9C60.5,43.4,51.8,57.5,44.6,72.4c-5.2,10.6-.3,23.7,9.3,30.5a26.11,26.11,0,0,0,31.6-.8c9.3-7.4,13.2-20.3,7.7-31C86,56.8,77.6,43,69.1,28.1Z" transform="translate(24016 -5978.551)" fill="#fff"/><path d="M0,119c3.3-5.3,6.7-10.5,9.9-15.9,4-6.8,7.9-13.7,12.6-21.8C23.8,98.4,31,110.7,43.6,121H0Z" transform="translate(24016 -5978.551)" fill="#fff"/><path d="M316.5,84.2H261.1c0,6.8-.1,13.1,0,19.3.1,3.5,2.7,3.6,5.4,3.6h50.1v13.3c-1.4.1-2.8.3-4.2.3-16.3,0-32.7,0-49-.2-11.1-.1-17.7-6.7-17.7-17.8,0-16.3-.1-32.6,0-49,0-10.8,6.8-17.6,17.4-17.6,17.3-.1,34.7-.1,52-.1.3,0,.6.2,1.4.3V49.6h-5.2c-14.8,0-29.7.1-44.5-.1-4.4-.1-6,1.5-5.8,5.9.2,4.8.1,9.6.1,15h55.4Z" transform="translate(24016 -5978.551)" fill="#fff"/><path d="M209.8,49.8h-52V36.3h79.3c-1.2,2.9-1.8,5.4-3.3,7.3C219.5,63,205,82.3,190.5,101.7c-1.1,1.4-2.1,2.9-3.6,5h50.5v13.6H158.8c1.3-2.9,2-5.3,3.4-7.2,14.8-19.7,29.7-39.4,44.5-59C207.5,53,208.3,51.9,209.8,49.8Z" transform="translate(24016 -5978.551)" fill="#fff"/><path d="M359.9,49.9H325.8V36.5h83.3V49.7H375.4v70.7H360C359.9,97.1,359.9,73.8,359.9,49.9Z" transform="translate(24016 -5978.551)" fill="#fff"/><path d="M93.7,120.2c13.5-9.4,20.7-21.6,22.1-38.9,7.9,13.7,15,26,22.4,38.9Z" transform="translate(24016 -5978.551)" fill="#fff"/></g></svg>