<?xml version="1.0" standalone="no"?>
<!DOCTYPE svg PUBLIC "-//W3C//DTD SVG 20010904//EN"
 "http://www.w3.org/TR/2001/REC-SVG-20010904/DTD/svg10.dtd">
<svg version="1.0" xmlns="http://www.w3.org/2000/svg"
 width="700.000000pt" height="700.000000pt" viewBox="0 0 700.000000 700.000000"
 preserveAspectRatio="xMidYMid meet">
<metadata>
Created by potrace 1.14, written by Peter Selinger 2001-2017
</metadata>
<g transform="translate(0.000000,700.000000) scale(0.100000,-0.100000)"
fill="#000000" stroke="none">
<path d="M3474 6093 c-37 -69 -415 -723 -614 -1063 -37 -63 -79 -135 -92 -160
-14 -25 -66 -115 -115 -200 -101 -173 -322 -570 -385 -688 -22 -42 -51 -95
-63 -117 -42 -74 -313 -619 -340 -685 -30 -72 -64 -172 -71 -210 -3 -14 -9
-41 -14 -60 -23 -92 -30 -160 -30 -315 0 -175 8 -239 51 -410 87 -345 340
-721 632 -938 227 -169 390 -246 716 -337 l133 -38 235 -1 c214 -1 238 0 267
18 17 10 60 24 96 31 142 27 309 89 455 168 421 231 722 622 849 1102 40 148
54 284 51 475 -4 211 -31 368 -96 551 -60 171 -98 244 -273 534 -115 192 -433
735 -513 880 -17 30 -48 84 -68 120 -21 36 -49 85 -63 110 -14 25 -95 167
-180 315 -85 149 -166 290 -180 314 -68 121 -83 147 -92 161 -6 8 -13 22 -17
30 -4 8 -38 69 -77 135 -38 66 -94 164 -123 218 -30 53 -55 97 -57 97 -1 0
-11 -17 -22 -37z m234 -1533 c91 -157 173 -298 182 -315 9 -16 80 -140 157
-275 239 -417 494 -893 534 -995 71 -185 84 -417 34 -617 -83 -329 -326 -622
-636 -767 -151 -71 -282 -101 -464 -105 -556 -13 -1060 419 -1153 987 -3 23
-6 94 -5 157 1 120 23 230 64 327 22 52 174 358 219 438 15 28 49 91 75 140
78 147 286 517 413 736 9 15 82 142 162 281 79 139 159 279 178 311 l34 58 20
-38 c11 -21 95 -166 186 -323z"/>
<path d="M1466 2587 c-10 -18 -32 -57 -48 -87 -17 -30 -54 -95 -83 -145 -29
-49 -62 -106 -73 -125 -11 -19 -35 -62 -54 -95 -19 -33 -44 -76 -54 -95 -10
-19 -21 -37 -24 -40 -3 -3 -11 -16 -18 -30 -6 -14 -16 -32 -22 -40 -5 -8 -45
-76 -89 -150 -94 -163 -206 -345 -363 -594 -107 -169 -118 -190 -115 -228 l2
-43 933 0 c512 0 932 3 932 6 0 3 -24 25 -52 49 -107 89 -307 301 -390 411
-125 169 -182 265 -268 453 -62 136 -140 401 -154 526 -2 14 -6 34 -9 45 -3
11 -9 49 -12 85 -9 91 -13 122 -17 125 -2 2 -12 -11 -22 -28z"/>
<path d="M5501 2518 c-52 -449 -216 -846 -474 -1148 -106 -125 -276 -283 -394
-367 -35 -24 -63 -47 -63 -49 0 -2 428 -4 950 -4 570 0 950 4 950 9 0 5 -20
42 -43 83 -45 75 -222 381 -262 453 -13 22 -47 81 -75 130 -29 50 -66 115 -83
145 -17 30 -48 84 -69 119 -21 34 -38 64 -38 66 0 2 -28 50 -61 107 -34 57
-74 126 -89 153 -51 92 -223 390 -230 398 -4 4 -12 -38 -19 -95z"/>
</g>
</svg>
