<svg version="1.1" xmlns="http://www.w3.org/2000/svg" xmlns:xlink="http://www.w3.org/1999/xlink" x="0px" y="0px" width="1176.3" height="1176.3" viewBox="0 0 1176.3 1176.3" style="enable-background:new 0 0 1176.3 1176.3;" xml:space="preserve">
<path style="opacity:0.05;fill:#FFFFFF;enable-background:new;" d="M1176.3,560.6v55.1c0,13.8-11.2,26.1-24.9,27.5l-46.3,4.4c-7.9,0.8-15.7,8.2-17,16.1
l-9.5,47.9c-2,8.1,2.3,17.9,9.4,21.7l40.8,22c12.2,6.5,17.8,22.2,12.4,35l-21.3,50.8c-5.6,13-20.1,19.7-33.6,15.7l-44.4-13.7
c-7.6-2.4-17.7,1.4-21.9,8.2l-24.6,36.7c-4.9,6.6-4.6,17.5,0.5,23.5l29.5,36c8.8,10.6,8,27.2-1.7,37.1l-39,38.9
c-9.7,9.7-26.4,10.6-37.1,1.9l-35.9-29.6c-6.2-5.1-16.9-5.3-23.5-0.6l-43.1,28.5c-7,4.3-11,14.3-8.7,22l13.1,44.4
c3.9,13.2-3.3,28.2-16.2,33.4l-51.1,20.6c-12.9,5.2-28.5-0.6-34.8-12.9l-21.4-41.2c-3.6-7-13.5-11.5-21.3-9.7l-40.8,7.9
c-8.1,1.2-15.4,8.9-16.2,17l-4.5,46.2c-1.4,13.7-13.7,24.9-27.5,24.9h-55c-13.8,0-26.1-11.2-27.5-24.9l-4.5-46.2
c-0.8-8-8.1-15.8-16-17l-48.3-9.6c-8.1-2-17.9,2.3-21.7,9.4l-22,40.8c-6.6,12.1-22.3,17.7-35,12.3l-50.8-21.3
c-12.7-5.3-19.8-20.4-15.7-33.6l13.7-44.4c2.4-7.5-1.4-17.7-8.2-21.8l-36.6-24.7c-6.6-4.9-17.3-4.6-23.6,0.5l-35.8,29.6
c-10.7,8.8-27.4,7.9-37.1-1.8l-39-38.9c-9.7-9.9-10.5-26.5-1.7-37.1l29.5-35.9c5.1-6.1,5.4-17,0.7-23.3l-25.3-37.8
c-4.3-7-14.3-10.8-21.9-8.4l-44.4,13.6c-13.2,4.1-28.3-3-33.7-15.8l-21.2-50.8c-5.3-12.8,0.3-28.4,12.4-35L88,732.3
c7-3.7,11.5-13.7,9.5-21.3l-9.3-47c-1.3-8.2-9.1-15.5-17.1-16.3l-46.3-4.4C11.2,641.9,0,629.6,0,615.8v-55.1
c0-13.8,11.2-26.1,24.9-27.5l46.3-4.4c7.9-0.8,15.7-8.2,17-16.1l9.5-48c2-7.9-2.5-17.9-9.4-21.7L47.6,421
c-12.2-6.5-17.8-22.2-12.5-35l21.3-50.8c5.5-12.8,20.6-19.8,33.7-15.7l44.3,13.7c7.7,2.4,17.6-1.4,21.8-8.2l24.7-36.8
c4.9-6.7,4.7-17.3-0.5-23.4l-29.5-36c-8.8-10.7-8-27.3,1.7-37.1l39-38.9c9.7-9.7,26.4-10.6,37.1-1.9l35.9,29.6
c6.2,5.1,16.9,5.3,23.5,0.6l43.1-28.5c7.1-4.3,11-14.3,8.7-22l-13.1-44.4c-3.9-13.4,3.3-28.3,16.2-33.4l51-20.6
c12.9-5.1,28.5,0.7,34.8,13l21.4,41.1c3.6,7.1,13.5,11.6,21.2,9.8l40.9-7.8c8.1-1.3,15.4-9,16.2-17l4.5-46.2
c1.4-13.8,13.7-25,27.5-25h55c13.8,0,26.1,11.2,27.5,25l4.5,46.2c0.8,8,8.1,15.8,16,17l48.3,9.7c8.1,2,17.9-2.3,21.7-9.4l22-40.8
c6.9-12.4,21.9-17.7,35-12.3l50.8,21.3c12.7,5.3,19.7,20.4,15.7,33.6l-13.7,44.3c-2.4,7.6,1.4,17.8,8.2,21.9l36.6,24.7
c6.6,4.9,17.3,4.6,23.6-0.5l35.8-29.6c10.7-8.8,27.4-7.9,37.1,1.8l39,38.9c9.8,9.8,10.6,26.4,1.7,37.1l-29.5,35.9
c-5.2,6.2-5.5,16.8-0.7,23.3l25.3,37.7c4.3,7.1,14.3,10.9,22,8.5l44.4-13.6c13.3-4.1,28.4,3,33.6,15.8l21.2,50.8
c5.3,12.8-0.3,28.5-12.5,35l-40.8,21.9c-7.1,3.7-11.4,13.5-9.5,21.3l9.3,47c1.3,8.2,9.1,15.5,17.1,16.3l46.3,4.4
C1165.2,534.5,1176.3,546.8,1176.3,560.6z M1065.8,715.9c0-2.3,0.3-4.6,0.8-6.8l9.4-47.5c2.1-13.2,14.4-24.8,27.9-26.1l46.3-4.4
c7.8-1,13.6-7.5,13.9-15.3v-55.1c-0.2-7.8-6.1-14.3-13.9-15.3l-46.3-4.4c-13.5-1.3-25.7-12.9-27.9-26.3l-9.2-46.5
c-3.2-13,3.7-28.4,15.7-34.7l40.8-21.9c6.7-3.6,10-12.6,7-19.5l-21.2-50.8c-3.2-7.2-11.2-10.9-18.8-8.8L1046,346
c-13,4-28.8-2-35.8-13.6l-25-37.2c-8-10.8-7.5-27.7,1.2-38.2l29.4-35.9c4.8-5.9,4.4-15.4-0.9-20.7l-39-38.9
c-5.7-5.4-14.5-5.8-20.7-1L919.4,190c-10.6,8.6-27.4,9.1-38.3,1.1L845,166.7c-11.3-6.8-17.3-22.9-13.3-35.8l13.7-44.2
c2.2-7.3-1.8-15.9-8.7-18.8l-50.8-21.3c-7.3-2.9-15.6,0-19.5,6.9l-22,40.8c-6.5,12-21.9,18.8-35.1,15.5l-47.7-9.5
c-13.1-2-24.7-14.3-26-27.9L631,26.2c-0.7-7.6-7.8-14-15.3-14h-55c-7.9,0.3-14.4,6.2-15.3,14l-4.5,46.2
c-1.3,13.5-12.9,25.7-26.3,27.8l-40.4,7.7c-13.1,3.1-28.4-3.9-34.6-16.1l-21.4-41.1c-3.5-6.7-12.3-10-19.4-7.2l-51,20.6
c-7.2,3.1-11.1,11-9,18.6l13.1,44.5c3.8,13.1-2.3,28.8-13.9,35.8l-42.6,28.2c-10.8,7.8-27.6,7.4-38.2-1.2l-35.8-29.6
c-6.2-4.8-15-4.3-20.7,1.1l-39,38.9c-5.4,5.7-5.8,14.5-0.9,20.7l29.5,35.9c8.7,10.4,9.2,27.3,1,38.3l-24.4,36.4
c-6.9,11.4-22.7,17.3-35.7,13.3l-44.4-13.7c-7.2-2.3-15.8,1.7-18.8,8.8l-21.3,50.8c-2.8,7.3,0.2,15.6,7,19.5l40.8,21.9
c11.8,6.4,18.8,22.1,15.5,35.1l-9.4,47.5c-2.1,13.2-14.4,24.8-27.9,26.1l-46.3,4.4c-7.8,1-13.6,7.5-13.9,15.3v55.1
c0.2,7.8,6.1,14.3,13.9,15.3l46.3,4.4c13.5,1.3,25.7,12.9,27.9,26.3l9.2,46.5c3.2,12.9-3.6,28.2-15.7,34.7l-40.9,21.9
c-6.8,4-9.7,12.2-6.9,19.6l21.2,50.8c3.2,7.2,11.2,10.9,18.8,8.8l44.4-13.6c13-4,28.7,1.9,35.8,13.5l25,37.3
c7.9,10.6,7.4,27.8-1.3,38.1l-29.4,35.9c-4.8,6.2-4.4,15,1,20.7l39,38.9c5.7,5.4,14.5,5.8,20.7,1l35.8-29.6
c10.6-8.6,27.4-9.1,38.3-1.1l36.1,24.4c11.3,6.8,17.4,22.9,13.3,35.7l-13.7,44.3c-2.2,7.3,1.8,15.9,8.7,18.8l50.8,21.3
c7.3,2.8,15.6-0.1,19.5-6.9l22-40.8c6.4-12,21.8-18.8,35.1-15.5l47.8,9.5c13.1,2,24.7,14.3,26,27.9l4.5,46.2
c1,7.8,7.5,13.7,15.3,13.9h55c7.8-0.2,14.3-6.1,15.3-13.9l4.5-46.2c1.3-13.7,12.9-25.9,26.3-27.8l40.3-7.8c13.1-3,28.4,4,34.6,16.1
l21.4,41.2c3.8,6.8,12,9.9,19.4,7.1l51.1-20.6c7.2-3.1,11-11,9-18.6l-13.1-44.5c-3.8-13.1,2.4-28.8,13.9-35.8l42.6-28.2
c10.8-7.8,27.6-7.4,38.1,1.2l35.9,29.6c6.2,4.8,15,4.3,20.7-1.1l39-38.9c5.3-5.7,5.7-14.5,0.9-20.7l-29.5-35.9
c-8.6-10.3-9.1-27.5-1-38.3l24.3-36.3c7-11.4,22.8-17.3,35.8-13.3l44.4,13.7c7.6,2.1,15.5-1.6,18.8-8.8l21.3-50.8
c2.8-7.3-0.2-15.6-7-19.5l-40.8-22C1072.2,738.8,1065.8,727.2,1065.8,715.9L1065.8,715.9z M998.2,574.6H836.6l-0.4-5.7
c-3.9-52.6-24.6-102.6-59.1-142.5l-3.7-4.3l114.4-114.4l4.3,4.7c63.8,70.4,101.2,160.7,105.9,255.6L998.2,574.6z M847.9,562.4h137.5
c-5.7-87.6-40.2-170.9-98.1-236.8l-97.3,97.3C822.8,462.6,842.9,511.2,847.9,562.4L847.9,562.4z M998.2,601.8l-0.3,6.4
c-4.6,94.9-42.1,185.2-105.9,255.6l-4.3,4.7L773.3,754.2l3.7-4.3c34.5-39.9,55.3-89.9,59.1-142.5l0.4-5.7L998.2,601.8z M887.2,850.8
c57.9-66,92.4-149.2,98.1-236.8H847.9c-4.9,51.3-25.1,99.9-57.9,139.5L887.2,850.8z M868.5,288.6L754.2,403l-4.3-3.7
c-39.9-34.5-89.9-55.2-142.6-59.1l-5.7-0.4V178.1l6.4,0.3c94.9,4.7,185.2,42.1,255.6,105.9L868.5,288.6z M753.5,386.4l97.2-97.3
c-66-57.9-149.2-92.4-236.8-98.1v137.6C665.2,333.4,713.8,353.6,753.5,386.4L753.5,386.4z M868.5,887.7l-4.7,4.3
C793.4,955.9,703,993.3,608.1,998l-6.4,0.3V836.6l5.7-0.4c52.6-3.9,102.6-24.6,142.6-59.1l4.3-3.7L868.5,887.7z M613.9,985.4
c87.6-5.7,170.9-40.2,236.8-98.2L753.5,790c-39.7,32.8-88.3,53-139.6,57.8L613.9,985.4z M820.1,574.6h-64.4l-0.6-5.4
c-3.5-31.3-15.8-61-35.6-85.5l-3.4-4.3l45.5-45.6l4.3,5.1c30.8,36.4,49.5,81.5,53.6,129L820.1,574.6z M766.6,562.4h40.1
c-4.7-40.4-20.6-78.6-45.9-110.4l-28.4,28.4C750.6,504.4,762.3,532.6,766.6,562.4L766.6,562.4z M820.1,601.8l-0.6,6.6
c-4.1,47.5-22.8,92.6-53.6,129l-4.3,5.1L716.1,697l3.4-4.3c19.7-24.5,32.1-54.2,35.6-85.5l0.6-5.4L820.1,601.8z M760.8,724.4
c25.3-31.8,41.1-70.1,45.9-110.4h-40.1c-4.3,29.8-16,58-34.1,82L760.8,724.4z M742.6,761.8l-5.1,4.3
c-36.5,30.7-81.6,49.4-129.1,53.5l-6.6,0.6v-64.3l5.4-0.6c31.3-3.4,61-15.8,85.6-35.6l4.3-3.4L742.6,761.8z M613.9,806.7
c40.4-4.7,78.6-20.6,110.5-45.8l-28.4-28.4c-24,18.2-52.3,29.9-82.1,34.1V806.7z M742.5,414.6L697,460.2l-4.3-3.4
c-24.6-19.8-54.3-32.1-85.6-35.6l-5.4-0.6v-64.3l6.6,0.6c47.5,4.1,92.6,22.7,129,53.5L742.5,414.6z M696.1,443.9l28.3-28.4
c-31.8-25.2-70.1-41.1-110.4-45.8v40C643.8,414,672,425.7,696.1,443.9L696.1,443.9z M720.4,588.2c0,6.9-0.5,13.8-1.6,20.7
c-5.5,34.6-24.5,65.6-52.9,86.2c-16.9,12.4-36.5,20.6-57.2,23.8c-13.7,2.1-27.6,2.1-41.2,0c-20.7-3.3-40.3-11.4-57.2-23.8
c-11.2-8.2-21-18-29.2-29.2c-20.6-28.4-29.2-63.8-23.7-98.4c3.3-20.6,11.4-40.2,23.6-57.1c8.2-11.1,18.1-20.9,29.2-29.1
c16.9-12.3,36.5-20.5,57.2-23.8c6.8-1.1,13.7-1.6,20.7-1.6c6.9,0,13.8,0.5,20.6,1.6c20.7,3.2,40.3,11.4,57.2,23.8
c28.4,20.6,47.4,51.6,52.8,86.3C719.9,574.4,720.5,581.3,720.4,588.2L720.4,588.2z M468.1,588.2c0,6.3,0.5,12.5,1.5,18.7
c2.9,18.7,10.3,36.5,21.5,51.8c7.4,10.2,16.4,19.1,26.5,26.5c15.3,11.2,33.1,18.6,51.9,21.6c12.4,1.9,25,2,37.3,0
c18.8-2.9,36.6-10.3,51.9-21.6c10.2-7.4,19.1-16.4,26.5-26.5c18.7-25.7,26.4-57.8,21.5-89.3c-3-18.8-10.4-36.6-21.5-52
c-7.4-10.1-16.4-19-26.5-26.4c-15.3-11.3-33.1-18.7-51.9-21.6c-6.2-1-12.4-1.5-18.6-1.5c-6.3,0-12.5,0.5-18.7,1.5l0,0
c-18.8,3-36.6,10.4-51.9,21.6c-10.1,7.4-19.1,16.4-26.6,26.5c-11.1,15.4-18.4,33.1-21.4,51.8C468.6,575.7,468.1,581.9,468.1,588.2
L468.1,588.2z M574.6,178.1v161.7l-5.7,0.4c-52.6,3.9-102.6,24.6-142.6,59.1l-4.3,3.7L307.9,288.6l4.7-4.3
c70.4-63.8,160.7-101.2,255.6-105.9L574.6,178.1z M562.4,328.6V191c-87.6,5.7-170.9,40.2-236.8,98.1l97.2,97.3
C462.5,353.6,511.2,333.4,562.4,328.6L562.4,328.6z M574.6,356.3v64.3l-5.4,0.6c-31.3,3.5-61,15.8-85.6,35.6l-4.3,3.4l-45.5-45.5
l5.1-4.3c36.4-30.7,81.5-49.5,129-53.6L574.6,356.3z M562.4,409.8v-40c-40.4,4.7-78.6,20.6-110.4,45.9l28.3,28.3
C504.4,425.8,532.6,414,562.4,409.8L562.4,409.8z M574.6,755.8v64.3l-6.6-0.6c-47.5-4.1-92.6-22.8-129-53.6l-5.1-4.3l45.5-45.5
l4.3,3.4c24.6,19.7,54.3,32.1,85.6,35.6L574.6,755.8z M562.4,806.7v-40c-29.8-4.3-58.1-16-82.1-34.1L452,760.8
C483.8,786.1,522.1,801.9,562.4,806.7L562.4,806.7z M574.6,836.6v161.7l-6.4-0.3c-94.9-4.6-185.3-42.1-255.6-106l-4.7-4.3
l114.3-114.3l4.3,3.7c40,34.5,89.9,55.2,142.6,59.1L574.6,836.6z M562.4,985.4V847.8c-51.3-4.9-99.9-25.1-139.6-57.8l-97.2,97.2
C391.5,945.2,474.8,979.7,562.4,985.4z M460.2,479.4l-3.4,4.3c-19.7,24.5-32.1,54.2-35.6,85.5l-0.6,5.4h-64.4l0.6-6.6
c4.1-47.5,22.8-92.6,53.6-129l4.3-5.1L460.2,479.4z M409.8,562.4c4.3-29.8,16-58,34.1-82L415.5,452c-25.3,31.8-41.1,70.1-45.9,110.4
H409.8z M460.2,697l-45.6,45.6l-4.3-5.1c-30.8-36.4-49.5-81.5-53.6-129l-0.6-6.6h64.4l0.6,5.4c3.5,31.3,15.8,61,35.6,85.5L460.2,697
z M415.5,724.4l28.4-28.4c-18.1-24-29.9-52.2-34.1-82h-40.1C374.4,654.4,390.3,692.6,415.5,724.4L415.5,724.4z M403,422.2l-3.7,4.3
c-34.5,39.9-55.3,89.9-59.2,142.5l-0.4,5.7H178.2l0.3-6.4c4.6-94.9,42.1-185.2,105.9-255.6l4.3-4.7L403,422.2z M328.5,562.4
c4.9-51.3,25.1-99.9,57.9-139.5l-97.3-97.3c-57.9,66-92.4,149.2-98.1,236.8H328.5z M403,754.2L288.6,868.6l-4.3-4.7
c-63.8-70.4-101.2-160.7-105.9-255.6l-0.3-6.4h161.6l0.4,5.7c3.9,52.6,24.6,102.6,59.2,142.5L403,754.2z M289.1,850.8l97.3-97.3
c-32.8-39.7-53-88.3-57.9-139.5H191C196.7,701.6,231.2,784.9,289.1,850.8L289.1,850.8z"></path>
</svg>