<svg xmlns:xlink="http://www.w3.org/1999/xlink" xmlns="http://www.w3.org/2000/svg" width="21.743" height="33.177" viewBox="0 0 21.743 33.177"><path d="M-25.56,83.04h1.1v.75h-.813l-1.056.932H-28.2l-1.056-.932h-.794v-.75h1.077l1.056.932h1.3Zm-6.071-2.852h8.605v-.75h-8.605Zm-.013,1.84h8.6v-.75h-8.6Zm-5.678-20.19a1.176,1.176,0,0,0,.174.611l.34.567h-3.129l-.149-.347a8.618,8.618,0,0,1-.2-4.162,8.588,8.588,0,0,1,6.617-6.762,8.943,8.943,0,0,1,1.865-.2h.375v3.894a1.863,1.863,0,0,1,.38-.039A1.951,1.951,0,0,1-29.1,57.349,1.95,1.95,0,0,1-31.053,59.3a1.863,1.863,0,0,1-.38-.039v3.758H-35.44l.34-.567a1.174,1.174,0,0,0,.174-.611,1.2,1.2,0,0,0-1.2-1.2A1.2,1.2,0,0,0-37.322,61.838Zm1.2-1.948a1.95,1.95,0,0,1,1.948,1.948,1.827,1.827,0,0,1-.05.428h2.043v-4.18l.556.306a1.2,1.2,0,0,0,1.772-1.043,1.2,1.2,0,0,0-1.772-1.044l-.556.306V52.3a8.431,8.431,0,0,0-1.336.174,7.836,7.836,0,0,0-6.034,6.169,7.881,7.881,0,0,0,.13,3.619h1.4a1.938,1.938,0,0,1-.049-.428A1.95,1.95,0,0,1-36.124,59.89Zm17.139,6.832h.04l-.152.486h0l-.083.262H-19.2a8.5,8.5,0,0,1-1.9,3.1,6.7,6.7,0,0,0-1.979,4.559v3.058h-8.545V75.135A6.642,6.642,0,0,0-33.6,70.577a8.5,8.5,0,0,1-2.005-3.369l-.152-.486h2.2a1.912,1.912,0,0,1-.063-.489,1.951,1.951,0,0,1,1.949-1.948,1.95,1.95,0,0,1,1.948,1.948,1.912,1.912,0,0,1-.063.489h2.063V62.544l.553.3a1.2,1.2,0,0,0,1.757-1.019v-.05a1.2,1.2,0,0,0-1.758-1.03l-.553.3V56h.375a8.652,8.652,0,0,1,8.642,8.643A8.513,8.513,0,0,1-18.985,66.722Zm-7.992,0h2.062a1.912,1.912,0,0,1-.063-.489,1.951,1.951,0,0,1,1.949-1.948,1.95,1.95,0,0,1,1.948,1.948,1.912,1.912,0,0,1-.063.489h1.409a7.8,7.8,0,0,0,.275-2.079,7.9,7.9,0,0,0-7.517-7.884v3.122a1.965,1.965,0,0,1,2.314,1.911l-.006.084a1.955,1.955,0,0,1-2.308,1.829Zm1.564,4.3a1.18,1.18,0,0,0-.024-.158,1.282,1.282,0,0,0-.358-.694c-.024-.023-.052-.041-.078-.062A1.2,1.2,0,0,0-26.015,70a1.175,1.175,0,0,0-.18-.083.8.8,0,0,0-.08-.034,1.111,1.111,0,0,0-.23-.043c-.021,0-.04-.008-.061-.009a1.148,1.148,0,0,0-.232.019c-.025,0-.049,0-.073.008a1.181,1.181,0,0,0-.3.114l-.553.3v-2.8h-3.33l.382-.581a1.2,1.2,0,0,0,.2-.658,1.2,1.2,0,0,0-1.2-1.2,1.2,1.2,0,0,0-1.2,1.2,1.192,1.192,0,0,0,.2.657l.383.582h-2.428a7.759,7.759,0,0,0,1.657,2.584,7.384,7.384,0,0,1,2.189,5.079v2.308h3.148V71.775l.553.3A1.2,1.2,0,0,0-25.413,71.024Zm5.429-3.552h-2.427l.382-.581a1.2,1.2,0,0,0,.2-.658,1.2,1.2,0,0,0-1.2-1.2,1.2,1.2,0,0,0-1.2,1.2,1.192,1.192,0,0,0,.2.657l.383.582h-3.33v1.64a1.972,1.972,0,0,1,2.31,1.825l0,.07a1.987,1.987,0,0,1-1.463,1.9,1.852,1.852,0,0,1-.184.028,1.8,1.8,0,0,1-.232.036,1.884,1.884,0,0,1-.434-.035v4.507h3.147V75.135a7.438,7.438,0,0,1,2.187-5.076A7.825,7.825,0,0,0-19.984,67.472Z" transform="translate(40.453 -51.545)" fill="#FFFFFF"></path></svg>