<svg xmlns:xlink="http://www.w3.org/1999/xlink" id="Ebene_2" xmlns="http://www.w3.org/2000/svg" viewBox="0 0 78.86 104.89" width="78.86"  height="104.89" ><defs><style>.cls-1{fill:none;stroke:#fff;stroke-miterlimit:10;stroke-width:2.5px}</style></defs><g id="Ebene_1-2"><g id="icons"><polyline class="cls-1" points="35.47 74.68 26.3 101.01 20.09 90.36 8.55 95.09 18.02 67.58" stroke="#FFFFFF" fill="none" stroke-width="2.5px"></polyline><polyline class="cls-1" points="44.05 74.97 53.22 101.9 59.44 91.24 70.68 95.98 61.51 68.17" stroke="#FFFFFF" fill="none" stroke-width="2.5px"></polyline><circle class="cls-1" cx="40.2" cy="41.84" r="19.82" stroke="#FFFFFF" fill="none" stroke-width="2.5px"></circle><polyline class="cls-1" points="31.03 42.43 37.25 48.64 49.97 35.62" stroke="#FFFFFF" fill="none" stroke-width="2.5px"></polyline><polygon class="cls-1" points="12.99 11.95 29.55 14.03 39.61 1.9 50.86 14.03 66.24 13.14 66.54 28.82 77.19 39.77 67.42 51.6 66.24 66.39 51.45 68.46 39.61 77.63 28.37 68.46 12.69 66.39 12.1 51.3 1.74 39.77 12.99 29.11 12.99 11.95" stroke="#FFFFFF" fill="none" stroke-width="2.5px"></polygon></g></g></svg>