<svg xmlns:xlink="http://www.w3.org/1999/xlink" xmlns="http://www.w3.org/2000/svg" width="25.473" height="34.645" viewBox="0 0 25.473 34.645"><path d="M-110.779,34.837l-.749.04a2.811,2.811,0,0,0-2.807-2.659h0a2.879,2.879,0,0,0-1.909.727l-.335.3-.234-.382a3.307,3.307,0,0,0-2.8-1.568h-.025a3.375,3.375,0,0,0-3.147,2.159l-.082.21-.222.026a3.436,3.436,0,0,0-2.749,2.069l-.69-.292a4.182,4.182,0,0,1,2.735-2.394,2.623,2.623,0,0,0-1.532-.5h-.46l-.082-.262a3.04,3.04,0,0,0-2.911-2.134h-.037a2.989,2.989,0,0,0-2.4,1.212l-.144.194-.237-.05a3.514,3.514,0,0,0-.658-.066,3.165,3.165,0,0,0-.858.134,3.506,3.506,0,0,0-1.216.583,3.406,3.406,0,0,0-1.164,2.523l-.75,0a4.16,4.16,0,0,1,1.416-3.082,4.2,4.2,0,0,1,1.512-.743,4.189,4.189,0,0,1,1.64-.12,3.753,3.753,0,0,1,2.888-1.332h.014a3.781,3.781,0,0,1,3.529,2.4,3.37,3.37,0,0,1,2.053.771,4.111,4.111,0,0,1,3.55-2.052h.03a4.064,4.064,0,0,1,3.2,1.58,3.634,3.634,0,0,1,2.076-.655h0A3.56,3.56,0,0,1-110.779,34.837Zm-14.076-4.965h.75V26.159h-.75Zm4.179-.692V25.127h-.75V29.18Zm-6.857-.915V25.127h-.75v3.138Zm.291-15.74a2.7,2.7,0,0,1,2.7-2.7,2.7,2.7,0,0,1,2.7,2.7,2.7,2.7,0,0,1-2.7,2.7A2.7,2.7,0,0,1-127.242,12.525Zm.75,0a1.95,1.95,0,0,0,1.947,1.947,1.949,1.949,0,0,0,1.947-1.947,1.949,1.949,0,0,0-1.947-1.947A1.95,1.95,0,0,0-126.492,12.525Zm-2.644,6.759-4.954,4.954V15.2l4.012-1.952a17.007,17.007,0,0,1,.135-2.005,17.8,17.8,0,0,1,4.68-9.377l.705-.754.752.756a17.8,17.8,0,0,1,4.678,9.375,16.8,16.8,0,0,1,.134,1.931l4.166,2.026v9.038l-5.064-5.064a17.378,17.378,0,0,1-2.156,4.5.507.507,0,0,1-.259.224,7.219,7.219,0,0,1-2.238.352,7.252,7.252,0,0,1-2.144-.322l-.121-.037-.2-.22A17.332,17.332,0,0,1-129.136,19.284Zm6.782,4.17-.124-.09.011.032Zm1.695-4.411a10.123,10.123,0,0,1-3.865.778,10.117,10.117,0,0,1-3.887-.783,17.107,17.107,0,0,0,2.007,4.186,6.425,6.425,0,0,0,3.759-.009A17.418,17.418,0,0,0-120.659,19.043Zm5.081-3.374-3.415-1.661a18.251,18.251,0,0,1-.656,4.348l4.071,4.071ZM-127.155,5.655a6.642,6.642,0,0,0,5.236-.01A17.679,17.679,0,0,0-124.335,2.4l-.206-.207-.184.2A17.751,17.751,0,0,0-127.155,5.655Zm-1.552,12.408a9.519,9.519,0,0,0,8.338.018,17.072,17.072,0,0,0,.5-6.741,14.915,14.915,0,0,0-1.68-5.039,7.245,7.245,0,0,1-2.994.662,7.253,7.253,0,0,1-2.978-.653,14.9,14.9,0,0,0-1.677,5.03A17.045,17.045,0,0,0-128.707,18.063Zm-4.633,4.364,3.891-3.891c-.013-.006-.026-.011-.038-.018l.077-.136a18.223,18.223,0,0,1-.664-4.3l-3.266,1.588Z" transform="translate(136.252 -1.112)" fill="#FFFFFF"></path></svg>