<svg xmlns:xlink="http://www.w3.org/1999/xlink" xmlns="http://www.w3.org/2000/svg" width="48" height="48" viewBox="0 0 48 48"><g transform="translate(814 5995.815) rotate(180)"><g transform="translate(814 5995.815) rotate(180)" fill="none"><path d="M24,0A24,24,0,1,1,4.93,38.574,23.677,23.677,0,0,1,0,24,24,24,0,0,1,24,0Z" stroke="none" fill="none"></path><path d="M 24 1 C 20.89458084106445 1 17.8825798034668 1.607978820800781 15.04766845703125 2.807041168212891 C 12.3089714050293 3.965419769287109 9.849151611328125 5.623939514160156 7.736549377441406 7.736549377441406 C 5.623939514160156 9.849151611328125 3.965419769287109 12.3089714050293 2.807041168212891 15.04766845703125 C 1.607978820800781 17.8825798034668 1 20.89458084106445 1 24 C 1 29.13435935974121 2.674900054931641 34.09061050415039 5.716598510742188 37.95632171630859 C 7.941688537597656 40.78820037841797 10.64817047119141 43.01744079589844 13.76087188720703 44.58213043212891 C 16.95253944396973 46.18650817871094 20.39748001098633 47 24 47 C 27.10541915893555 47 30.1174201965332 46.39202117919922 32.95233154296875 45.19295883178711 C 35.6910285949707 44.03458023071289 38.15084838867188 42.37606048583984 40.26345062255859 40.26345062255859 C 42.37606048583984 38.15084838867188 44.03458023071289 35.6910285949707 45.19295883178711 32.95233154296875 C 46.39202117919922 30.1174201965332 47 27.10541915893555 47 24 C 47 20.89458084106445 46.39202117919922 17.8825798034668 45.19295883178711 15.04766845703125 C 44.03458023071289 12.3089714050293 42.37606048583984 9.849151611328125 40.26345062255859 7.736549377441406 C 38.15084838867188 5.623939514160156 35.6910285949707 3.965419769287109 32.95233154296875 2.807041168212891 C 30.1174201965332 1.607978820800781 27.10541915893555 1 24 1 M 24 0 C 37.25482940673828 0 48 10.74517059326172 48 24 C 48 37.25482940673828 37.25482940673828 48 24 48 C 16.33871078491211 48 9.515850067138672 44.41020965576172 4.930290222167969 38.57415008544922 C 1.913539886474609 34.74015045166016 0 29.59354019165039 0 24 C 0 10.74517059326172 10.74517059326172 0 24 0 Z" stroke="none" fill="#00223E"></path></g><path d="M-6866.086-3964.343h15.916v15.917" transform="translate(2837.328 13618.584) rotate(45)" fill="none" stroke="#00223E" stroke-width="3px"></path></g></svg>