<svg xmlns:xlink="http://www.w3.org/1999/xlink" xmlns="http://www.w3.org/2000/svg" width="48.029" height="61.77" viewBox="0 0 48.029 61.77"><g transform="translate(8 24.117)" fill="#80ACD3"><path d="M 16.01468849182129 33.65241622924805 C 13.31448841094971 33.65241622924805 10.69292831420898 33.12267684936523 8.222838401794434 32.07791519165039 C 5.839028358459473 31.06965637207031 3.698988437652588 29.6270751953125 1.862168550491333 27.79024505615234 C 0.02533849142491817 25.95342636108398 -1.417241454124451 23.81338500976563 -2.425501585006714 21.42957496643066 C -3.470261573791504 18.95948600769043 -4.000001430511475 16.33792495727539 -4.000001430511475 13.63772583007813 C -4.000001430511475 11.00896549224854 -3.080021619796753 7.728405952453613 -1.187501549720764 3.608575820922852 C 0.199148491024971 0.5899858474731445 2.1014084815979 -2.863094091415405 4.466448307037354 -6.654754161834717 C 6.811748504638672 -10.41476440429688 9.004758834838867 -13.52695369720459 10.10324859619141 -15.04743385314941 C 10.84473896026611 -16.07378387451172 11.52363872528076 -16.98129463195801 12.06653881072998 -17.67185401916504 C 12.34110832214355 -18.02110481262207 12.56472873687744 -18.29436492919922 12.750168800354 -18.50725364685059 C 13.09708881378174 -18.9055233001709 14.15280818939209 -20.11750411987305 16.00961875915527 -20.11750411987305 C 17.16134834289551 -20.11750411987305 18.25798797607422 -19.62164497375488 19.01834869384766 -18.75706481933594 C 19.40347862243652 -18.31917381286621 23.53097915649414 -12.86457443237305 27.48409843444824 -6.600144386291504 C 29.8779182434082 -2.806704044342041 31.7950382232666 0.6255158185958862 33.18222808837891 3.601165771484375 C 35.09806823730469 7.710835933685303 36.02937698364258 10.99382591247559 36.02937698364258 13.63772583007813 C 36.02937698364258 16.33792495727539 35.49963760375977 18.95948600769043 34.45487976074219 21.42957496643066 C 33.44661712646484 23.81338500976563 32.0040397644043 25.95342636108398 30.16720771789551 27.79024505615234 C 28.33038902282715 29.6270751953125 26.19034767150879 31.06965637207031 23.80653762817383 32.07791519165039 C 21.33644866943359 33.12267684936523 18.71488761901855 33.65241622924805 16.01468849182129 33.65241622924805 Z" stroke="none" fill="#80ACD3"></path><path d="M 16.00962257385254 -16.11750793457031 C 15.62439918518066 -16.11750793457031 3.814697265625e-06 4.84327220916748 3.814697265625e-06 13.63772487640381 C 3.814697265625e-06 22.48239517211914 7.170017242431641 29.65241050720215 16.01468849182129 29.65241050720215 C 24.85935974121094 29.65241050720215 32.02937316894531 22.48239517211914 32.02937316894531 13.63772487640381 C 32.02937316894531 4.793067932128906 16.22611618041992 -15.87507438659668 16.01468849182129 -16.11547470092773 C 16.01348876953125 -16.11684036254883 16.01182174682617 -16.11750793457031 16.00962257385254 -16.11750793457031 M 16.00961685180664 -24.11750221252441 L 19.59101676940918 -24.11750221252441 L 21.97655868530273 -21.44626045227051 C 22.15708923339844 -21.24410438537598 40.02937316894531 1.283638954162598 40.02937316894531 13.63772487640381 C 40.02937316894531 26.87946701049805 29.25643157958984 37.65241241455078 16.01468849182129 37.65241241455078 C 2.772945404052734 37.65241241455078 -7.999996185302734 26.87946701049805 -7.999996185302734 13.63772487640381 C -7.999996185302734 6.900125026702881 6.80360221862793 -24.11750221252441 16.00961685180664 -24.11750221252441 Z" stroke="none" fill="#022E55"></path></g></svg>