<svg xmlns:xlink="http://www.w3.org/1999/xlink" xmlns="http://www.w3.org/2000/svg" width="35.052" height="35.068" viewBox="0 0 35.052 35.068"><g transform="translate(-50.033 304.36)"><path d="M52.91-299.481a2.442,2.442,0,0,1-2.439-2.439,2.442,2.442,0,0,1,2.439-2.44,2.442,2.442,0,0,1,2.439,2.44A2.442,2.442,0,0,1,52.91-299.481Zm0-3.879a1.441,1.441,0,0,0-1.439,1.44,1.441,1.441,0,0,0,1.439,1.439,1.441,1.441,0,0,0,1.439-1.439A1.441,1.441,0,0,0,52.91-303.36Z" fill="#FFFFFF"></path><path d="M65.93-299.182a2.442,2.442,0,0,1-2.44-2.44,2.442,2.442,0,0,1,2.44-2.439,2.442,2.442,0,0,1,2.439,2.439A2.442,2.442,0,0,1,65.93-299.182Zm0-3.879a1.441,1.441,0,0,0-1.44,1.439,1.442,1.442,0,0,0,1.44,1.44,1.441,1.441,0,0,0,1.439-1.44A1.441,1.441,0,0,0,65.93-303.061Z" fill="#FFFFFF"></path><path d="M52.467-274.108a2.429,2.429,0,0,1-1.424-.463,2.442,2.442,0,0,1-.548-3.406,2.421,2.421,0,0,1,1.589-.98,2.429,2.429,0,0,1,1.817.431,2.442,2.442,0,0,1,.548,3.406h0a2.424,2.424,0,0,1-1.589.98A2.477,2.477,0,0,1,52.467-274.108Zm.008-3.88a1.521,1.521,0,0,0-.232.018,1.431,1.431,0,0,0-.938.578,1.443,1.443,0,0,0,.324,2.01,1.418,1.418,0,0,0,1.072.254,1.432,1.432,0,0,0,.938-.578h0a1.441,1.441,0,0,0-.324-2.009A1.424,1.424,0,0,0,52.475-277.988Z" fill="#FFFFFF"></path><path d="M58.429-281.155a3.626,3.626,0,0,1-2.131-.69,3.623,3.623,0,0,1-1.464-2.375,3.624,3.624,0,0,1,.644-2.716,3.615,3.615,0,0,1,2.376-1.464,3.615,3.615,0,0,1,2.716.644,3.651,3.651,0,0,1,.82,5.091h0A3.644,3.644,0,0,1,58.429-281.155Zm.011-6.293a2.672,2.672,0,0,0-.427.035,2.631,2.631,0,0,0-1.725,1.063,2.627,2.627,0,0,0-.467,1.971,2.629,2.629,0,0,0,1.063,1.724,2.648,2.648,0,0,0,3.695-.6,2.651,2.651,0,0,0-.595-3.7A2.629,2.629,0,0,0,58.44-287.448Z" fill="#FFFFFF"></path><rect width="5.286" height="1" transform="matrix(0.586, -0.81, 0.81, 0.586, 53.202, -278.414)" fill="#FFFFFF"></rect><path d="M82.649-276.539a2.437,2.437,0,0,1-1.981-1.009,2.422,2.422,0,0,1-.431-1.817,2.419,2.419,0,0,1,.979-1.589,2.431,2.431,0,0,1,1.817-.431,2.419,2.419,0,0,1,1.589.979,2.426,2.426,0,0,1,.432,1.817,2.428,2.428,0,0,1-.98,1.589A2.432,2.432,0,0,1,82.649-276.539Zm-.007-3.878a1.431,1.431,0,0,0-.84.273,1.427,1.427,0,0,0-.578.938,1.432,1.432,0,0,0,.254,1.072,1.443,1.443,0,0,0,2.01.324,1.429,1.429,0,0,0,.578-.938,1.431,1.431,0,0,0-.254-1.072,1.431,1.431,0,0,0-.938-.578A1.405,1.405,0,0,0,82.642-280.417Z" fill="#FFFFFF"></path><path d="M76.691-283.582a3.659,3.659,0,0,1-.588-.047,3.625,3.625,0,0,1-2.376-1.464h0a3.625,3.625,0,0,1-.644-2.716,3.623,3.623,0,0,1,1.465-2.376,3.624,3.624,0,0,1,2.716-.644,3.621,3.621,0,0,1,2.375,1.465,3.623,3.623,0,0,1,.644,2.715,3.623,3.623,0,0,1-1.464,2.376A3.619,3.619,0,0,1,76.691-283.582Zm-.011-6.292a2.628,2.628,0,0,0-1.546.5,2.623,2.623,0,0,0-1.063,1.724,2.627,2.627,0,0,0,.467,1.971h0a2.631,2.631,0,0,0,1.724,1.063,2.622,2.622,0,0,0,1.971-.468,2.631,2.631,0,0,0,1.063-1.724,2.619,2.619,0,0,0-.468-1.97A2.642,2.642,0,0,0,76.68-289.874Z" fill="#FFFFFF"></path><rect width="1" height="5.286" transform="translate(78.008 -284.541) rotate(-35.845)" fill="#FFFFFF"></rect><path d="M70.494-269.292a2.43,2.43,0,0,1-1.342-.406,2.42,2.42,0,0,1-1.043-1.548,2.421,2.421,0,0,1,.356-1.833,2.42,2.42,0,0,1,1.548-1.043,2.443,2.443,0,0,1,2.876,1.9,2.427,2.427,0,0,1-.356,1.833,2.422,2.422,0,0,1-1.548,1.043A2.414,2.414,0,0,1,70.494-269.292Zm0-3.879a1.486,1.486,0,0,0-.287.028,1.432,1.432,0,0,0-.913.616,1.436,1.436,0,0,0-.211,1.082,1.432,1.432,0,0,0,.616.913,1.426,1.426,0,0,0,1.082.211,1.432,1.432,0,0,0,.913-.617,1.432,1.432,0,0,0,.211-1.081A1.443,1.443,0,0,0,70.5-273.171Z" fill="#FFFFFF"></path><path d="M68.463-278.06a3.626,3.626,0,0,1-2.006-.608,3.622,3.622,0,0,1-1.56-2.314h0a3.65,3.65,0,0,1,2.847-4.3,3.647,3.647,0,0,1,4.3,2.846,3.622,3.622,0,0,1-.533,2.74,3.619,3.619,0,0,1-2.314,1.56A3.656,3.656,0,0,1,68.463-278.06Zm-2.586-3.121A2.626,2.626,0,0,0,67.01-279.5a2.627,2.627,0,0,0,1.988.388,2.634,2.634,0,0,0,1.68-1.133,2.629,2.629,0,0,0,.386-1.988,2.633,2.633,0,0,0-1.132-1.68,2.642,2.642,0,0,0-1.989-.387,2.65,2.65,0,0,0-2.066,3.121Z" fill="#FFFFFF"></path><rect width="1" height="5.287" transform="matrix(0.98, -0.199, 0.199, 0.98, 68.57, -278.714)" fill="#FFFFFF"></rect><path d="M79.458-293.583a3.647,3.647,0,0,1-2.961-1.51h0a3.624,3.624,0,0,1-.644-2.716,3.62,3.62,0,0,1,1.465-2.375,3.618,3.618,0,0,1,2.716-.645,3.621,3.621,0,0,1,2.375,1.465,3.65,3.65,0,0,1-.82,5.091A3.622,3.622,0,0,1,79.458-293.583Zm-2.15-2.1a2.65,2.65,0,0,0,3.695.6,2.623,2.623,0,0,0,1.063-1.725,2.624,2.624,0,0,0-.467-1.97,2.628,2.628,0,0,0-1.725-1.063,2.629,2.629,0,0,0-1.97.467,2.649,2.649,0,0,0-.6,3.7Z" fill="#FFFFFF"></path><path d="M59.509-291.118a3.646,3.646,0,0,1-2.961-1.509h0a3.625,3.625,0,0,1-.644-2.716,3.62,3.62,0,0,1,1.465-2.376,3.619,3.619,0,0,1,2.715-.644A3.623,3.623,0,0,1,62.46-296.9a3.626,3.626,0,0,1,.644,2.716,3.625,3.625,0,0,1-1.464,2.376A3.634,3.634,0,0,1,59.509-291.118Zm-2.15-2.1a2.649,2.649,0,0,0,3.695.6,2.649,2.649,0,0,0,.595-3.695,2.631,2.631,0,0,0-1.724-1.063,2.632,2.632,0,0,0-1.971.468,2.631,2.631,0,0,0-1.063,1.724,2.632,2.632,0,0,0,.468,1.971Z" fill="#FFFFFF"></path><rect width="4.16" height="1" transform="translate(58.378 -287.883) rotate(-83.666)" fill="#FFFFFF"></rect><rect width="1" height="3.987" transform="matrix(0.396, -0.918, 0.918, 0.396, 61.349, -282.772)" fill="#FFFFFF"></rect><rect width="4.16" height="1" transform="translate(71.063 -282.546) rotate(-41.081)" fill="#FFFFFF"></rect><rect width="4.16" height="1" transform="matrix(0.244, -0.97, 0.97, 0.244, 77.277, -290.204)" fill="#FFFFFF"></rect><rect width="4.186" height="1" transform="translate(61.525 -297.566) rotate(-45.95)" fill="#FFFFFF"></rect><rect width="1" height="4.885" transform="translate(53.819 -300.164) rotate(-44.384)" fill="#FFFFFF"></rect></g></svg>