<svg xmlns:xlink="http://www.w3.org/1999/xlink" xmlns="http://www.w3.org/2000/svg" width="25.715" height="25.661" viewBox="0 0 25.715 25.661"><g transform="translate(0 0)"><path d="M-641.352,132.136H-636v17.125h-5.348Zm2.647-8.536a3.078,3.078,0,0,1,3.079,3.079,3.113,3.113,0,0,1-3.079,3.079,3.113,3.113,0,0,1-3.079-3.079A3.113,3.113,0,0,1-638.7,123.6h0" transform="translate(641.784 -123.6)" fill="#80ACD3"></path><path d="M-624.93,139.026h5.078v2.323h.108a5.49,5.49,0,0,1,5.024-2.755c5.4,0,6.375,3.566,6.375,8.158v9.4h-5.348v-8.32c0-2-.054-4.538-2.755-4.538s-3.187,2.161-3.187,4.376v8.482h-5.348Z" transform="translate(634.06 -130.49)" fill="#80ACD3"></path></g></svg>