<svg xmlns:xlink="http://www.w3.org/1999/xlink" xmlns="http://www.w3.org/2000/svg" width="20.434" height="20.442" viewBox="0 0 20.434 20.442"><path d="M31.22,28.483l-6.391-6.391L31.22,15.7a1.938,1.938,0,0,0-2.741-2.741l-6.391,6.391L15.7,12.96A1.938,1.938,0,1,0,12.956,15.7l6.391,6.391-6.391,6.391a1.874,1.874,0,0,0,0,2.741,1.925,1.925,0,0,0,2.741,0l6.391-6.391,6.391,6.391a1.947,1.947,0,0,0,2.741,0A1.925,1.925,0,0,0,31.22,28.483Z" transform="translate(-11.859 -11.854)" fill="#01213F" stroke="none"></path></svg>