<svg xmlns:xlink="http://www.w3.org/1999/xlink" xmlns="http://www.w3.org/2000/svg" width="33.179" height="34.052" viewBox="0 0 33.179 34.052"><path d="M-5.809-122.026l-9.219-9.591a12.967,12.967,0,0,0,2.146-7.151,13.068,13.068,0,0,0-13.053-13.053,13.068,13.068,0,0,0-13.052,13.053,13.068,13.068,0,0,0,13.052,13.053,12.949,12.949,0,0,0,6.634-1.832l9.4,9.778Zm-32.428-16.742a12.317,12.317,0,0,1,12.3-12.3,12.317,12.317,0,0,1,12.3,12.3,12.317,12.317,0,0,1-12.3,12.3A12.317,12.317,0,0,1-38.237-138.768ZM-15.472-131l8.623,8.971L-9.9-118.851l-8.743-9.1A13.154,13.154,0,0,0-15.472-131Zm-7.457-13.685H-28.94v3.041h-3.393v8.787h12.8v-8.787h-3.393Zm-5.261.75h4.511v2.291H-28.19ZM-31.583-133.6v-4.342h11.3v4.342Zm11.3-5.092h-11.3v-2.2h11.3Z" transform="translate(38.987 151.821)" fill="#FFFFFF"></path></svg>