<svg xmlns:xlink="http://www.w3.org/1999/xlink" xmlns="http://www.w3.org/2000/svg" width="32.627" height="32.628" viewBox="0 0 32.627 32.628"><path d="M-74.85,31.817V25.851h-8.272V21.046h-.75v1.277H-88.49v3.586a1.555,1.555,0,0,0-1.184,1.506,1.557,1.557,0,0,0,1.555,1.556,1.558,1.558,0,0,0,1.556-1.556,1.556,1.556,0,0,0-1.177-1.5V23.073h3.868V26.6H-75.6V31.81a1.555,1.555,0,0,0-1.191,1.508,1.558,1.558,0,0,0,1.556,1.556,1.558,1.558,0,0,0,1.555-1.556A1.553,1.553,0,0,0-74.85,31.817Zm-12.463-4.4a.807.807,0,0,1-.806.806.807.807,0,0,1-.805-.806.807.807,0,0,1,.805-.806A.807.807,0,0,1-87.313,27.415Zm12.078,6.709a.806.806,0,0,1-.806-.806.8.8,0,0,1,.777-.8h.057a.8.8,0,0,1,.777.8A.806.806,0,0,1-75.235,34.124Zm14.167-17.71a1.553,1.553,0,0,0-1.5,1.174h-5.956v8.258h-4.749v.75h1.18v4.6h3.588A1.555,1.555,0,0,0-67,32.388a1.558,1.558,0,0,0,1.556-1.556A1.558,1.558,0,0,0-67,29.277a1.555,1.555,0,0,0-1.5,1.169h-2.845V26.6h3.569V18.338h5.2a1.555,1.555,0,0,0,1.507,1.187,1.557,1.557,0,0,0,1.556-1.555A1.558,1.558,0,0,0-61.068,16.414ZM-67,30.027a.806.806,0,0,1,.806.805.806.806,0,0,1-.806.806.806.806,0,0,1-.805-.806A.806.806,0,0,1-67,30.027Zm5.931-11.252a.807.807,0,0,1-.806-.805.807.807,0,0,1,.806-.806.807.807,0,0,1,.806.806A.807.807,0,0,1-61.068,18.775Zm-1.98,5.956v-3.6h-3.181v.75H-63.8v2.85a1.553,1.553,0,0,0-1.186,1.506,1.557,1.557,0,0,0,1.555,1.556,1.557,1.557,0,0,0,1.555-1.556A1.554,1.554,0,0,0-63.048,24.731Zm-.381,2.309a.806.806,0,0,1-.805-.806.806.806,0,0,1,.805-.8.806.806,0,0,1,.805.8A.806.806,0,0,1-63.429,27.04ZM-89.08,19.53h5.951V11.258h4.717v-.75h-1.17V5.921h-3.594a1.553,1.553,0,0,0-1.5-1.181A1.557,1.557,0,0,0-86.236,6.3a1.558,1.558,0,0,0,1.555,1.556,1.555,1.555,0,0,0,1.5-1.18h2.844v3.837h-3.547V18.78h-5.2a1.555,1.555,0,0,0-1.506-1.185,1.557,1.557,0,0,0-1.555,1.555,1.557,1.557,0,0,0,1.555,1.556A1.555,1.555,0,0,0-89.08,19.53Zm4.4-12.429a.806.806,0,0,1-.805-.806.806.806,0,0,1,.805-.805.806.806,0,0,1,.806.805A.806.806,0,0,1-84.681,7.1Zm-5.9,12.855a.806.806,0,0,1-.805-.806.806.806,0,0,1,.805-.805.806.806,0,0,1,.806.805A.806.806,0,0,1-90.584,19.956Zm1.987-7.565v3.591h3.26v-.75h-2.51V12.391a1.555,1.555,0,0,0,1.18-1.505A1.557,1.557,0,0,0-88.222,9.33a1.558,1.558,0,0,0-1.556,1.556A1.556,1.556,0,0,0-88.6,12.391Zm.375-2.311a.807.807,0,0,1,.805.806.807.807,0,0,1-.805.806.807.807,0,0,1-.806-.806A.807.807,0,0,1-88.222,10.08ZM-76.8,5.3v5.963h8.252v4.791h.75V14.839h4.6V11.228a1.554,1.554,0,0,0,1.172-1.5A1.558,1.558,0,0,0-63.585,8.17a1.558,1.558,0,0,0-1.556,1.556,1.556,1.556,0,0,0,1.19,1.508v2.855H-67.8V10.517h-8.252V5.309A1.555,1.555,0,0,0-74.86,3.8a1.558,1.558,0,0,0-1.556-1.556A1.558,1.558,0,0,0-77.972,3.8,1.554,1.554,0,0,0-76.8,5.3Zm12.408,4.422a.807.807,0,0,1,.806-.806.807.807,0,0,1,.806.806.807.807,0,0,1-.806.806A.807.807,0,0,1-64.391,9.726ZM-76.416,3a.807.807,0,0,1,.806.806.807.807,0,0,1-.806.806.807.807,0,0,1-.806-.806A.807.807,0,0,1-76.416,3Zm-4.149,20.667.731.167.083-.366a6,6,0,0,1,.836-1.861,3.87,3.87,0,0,0,2.3.726,4.608,4.608,0,0,0,2.87-1.025,7.177,7.177,0,0,0,1.988-7.762l-.193-.421-.372.275a6.84,6.84,0,0,1-3.283,1.065A5.977,5.977,0,0,0-78.714,15.5a4.336,4.336,0,0,0-1.6,2.937,3.538,3.538,0,0,0,.829,2.642l.016.015A6.8,6.8,0,0,0-80.482,23.3Zm.994-5.163a3.579,3.579,0,0,1,1.332-2.421A5.424,5.424,0,0,1-75.5,15.2a8.314,8.314,0,0,0,3.218-.935,6.446,6.446,0,0,1-1.933,6.45,3.55,3.55,0,0,1-4.264.274,10.8,10.8,0,0,1,3.257-2.771l.328-.181-.362-.657-.329.182a11.58,11.58,0,0,0-3.422,2.894A2.8,2.8,0,0,1-79.571,18.5ZM-72.5,6.54h2.839a1.556,1.556,0,0,0,1.5,1.179A1.558,1.558,0,0,0-66.6,6.163a1.557,1.557,0,0,0-1.555-1.555A1.556,1.556,0,0,0-69.657,5.79h-3.588V8.95h.75Zm4.344-1.182a.806.806,0,0,1,.805.805.806.806,0,0,1-.805.806.806.806,0,0,1-.806-.806A.806.806,0,0,1-68.151,5.358ZM-79.158,30.585h-2.836A1.555,1.555,0,0,0-83.5,29.4a1.558,1.558,0,0,0-1.556,1.556A1.558,1.558,0,0,0-83.5,32.513,1.555,1.555,0,0,0-82,31.335h3.588V28.154h-.75ZM-83.5,31.763a.807.807,0,0,1-.806-.806.807.807,0,0,1,.806-.806.807.807,0,0,1,.806.806A.807.807,0,0,1-83.5,31.763Z" transform="translate(92.139 -2.246)" fill="#FFFFFF"></path></svg>