<svg xmlns:xlink="http://www.w3.org/1999/xlink" xmlns="http://www.w3.org/2000/svg" width="35.146" height="31.115" viewBox="0 0 35.146 31.115"><path d="M-120.744-134.571l7.329-7.341a4.481,4.481,0,0,0,1.272-4.011,4.572,4.572,0,0,0-2.742-3.376,4.444,4.444,0,0,0-4.867,1.046l-.992.99-.99-.992a4.468,4.468,0,0,0-3.183-1.282,4.454,4.454,0,0,0-3.156,1.345,4.507,4.507,0,0,0,0,6.278Zm-6.794-13.1a3.708,3.708,0,0,1,2.628-1.12h.039a3.705,3.705,0,0,1,2.609,1.064l1.517,1.52,1.523-1.519v0a3.69,3.69,0,0,1,4.035-.889,3.837,3.837,0,0,1,2.307,2.825,3.738,3.738,0,0,1-1.062,3.344l-6.8,6.812-6.794-6.809A3.753,3.753,0,0,1-127.538-147.667Zm-2.178,19.037a7.869,7.869,0,0,1,4.007,1.1l.382-.646a8.62,8.62,0,0,0-3.031-1.082,4.3,4.3,0,0,0,2.961-4.071,4.313,4.313,0,0,0-4.308-4.308,4.312,4.312,0,0,0-4.308,4.308,4.3,4.3,0,0,0,2.951,4.068,9.037,9.037,0,0,0-7.5,8.993l.015.559h9.14v-.75h-8.4A8.235,8.235,0,0,1-129.716-128.63Zm-3.547-4.7a3.562,3.562,0,0,1,3.558-3.558,3.562,3.562,0,0,1,3.558,3.558,3.562,3.562,0,0,1-3.558,3.558A3.562,3.562,0,0,1-133.263-133.331ZM-119.509-125a3.037,3.037,0,0,0,1.657-2.694,3.049,3.049,0,0,0-3.046-3.045,3.048,3.048,0,0,0-3.044,3.045,3.034,3.034,0,0,0,1.6,2.665,6.149,6.149,0,0,0-4.643,6.011l.015.5h11.61l.381-.122v-.375A6.152,6.152,0,0,0-119.509-125Zm-3.683-2.694a2.3,2.3,0,0,1,2.294-2.295,2.3,2.3,0,0,1,2.3,2.295,2.3,2.3,0,0,1-2.3,2.3A2.3,2.3,0,0,1-123.192-127.69Zm-3.035,8.423a5.338,5.338,0,0,1,5.247-5.174,5.342,5.342,0,0,1,5.244,5.174Zm15.621-9.946a4.3,4.3,0,0,0,3.2-4.146,4.313,4.313,0,0,0-4.308-4.308,4.313,4.313,0,0,0-4.308,4.308,4.3,4.3,0,0,0,2.86,4.039,8.627,8.627,0,0,0-3.495,1.142l.382.646a7.866,7.866,0,0,1,4.007-1.1,8.241,8.241,0,0,1,8.09,8.169h-8.4v.75h8.772l.354-.086.029-.473A9.053,9.053,0,0,0-110.606-129.213Zm-4.664-4.146a3.562,3.562,0,0,1,3.558-3.558,3.562,3.562,0,0,1,3.558,3.558,3.562,3.562,0,0,1-3.558,3.558A3.562,3.562,0,0,1-115.27-133.359Z" transform="translate(138.564 149.632)" fill="#FFFFFF"></path></svg>