<svg xmlns:xlink="http://www.w3.org/1999/xlink" xmlns="http://www.w3.org/2000/svg" width="52.78" height="41.596" viewBox="0 0 52.78 41.596"><path d="M5.163,39.682V4.659h-52.78V39.682h20.154v5.4h-6.343v1.17H-8.628v-1.17h-6.343v-5.4ZM.147,32.213a5.051,5.051,0,0,0-3.071-4.227,2.62,2.62,0,0,0,.9-1.976,2.657,2.657,0,0,0-2.655-2.653,2.656,2.656,0,0,0-2.655,2.653,2.634,2.634,0,0,0,.855,1.939,5.031,5.031,0,0,0-3.158,4.264h-3.916V19.429H3.993V32.213Zm-4.894-3.392a3.779,3.779,0,0,1,3.693,3.358h-7.39A3.766,3.766,0,0,1-4.747,28.821Zm-1.391-2.81a1.456,1.456,0,0,1,1.455-1.454A1.455,1.455,0,0,1-3.23,26.011a1.456,1.456,0,0,1-1.454,1.455A1.458,1.458,0,0,1-6.138,26.011Zm1.391-11.158a3.779,3.779,0,0,1,3.693,3.358h-7.39A3.765,3.765,0,0,1-4.747,14.853Zm-1.391-2.81a1.456,1.456,0,0,1,1.455-1.454A1.455,1.455,0,0,1-3.23,12.042,1.456,1.456,0,0,1-4.683,13.5,1.458,1.458,0,0,1-6.138,12.042ZM2.368,5.829H3.993v12.43H.149a5.056,5.056,0,0,0-3.072-4.241,2.631,2.631,0,0,0,.9-1.976A2.658,2.658,0,0,0-4.683,9.388a2.657,2.657,0,0,0-2.655,2.655,2.628,2.628,0,0,0,.855,1.937,5.033,5.033,0,0,0-3.158,4.28h-3.916V5.829H2.368Zm-48.815,0h31.72V32.213h-6.99a9.572,9.572,0,0,0-7.037-8.96,4.735,4.735,0,0,0,2.583-4.2A4.755,4.755,0,0,0-30.921,14.3a4.755,4.755,0,0,0-4.749,4.751,4.736,4.736,0,0,0,2.5,4.156,9.564,9.564,0,0,0-7.209,9.005h-6.067Zm23.577,26.36H-39.234a8.328,8.328,0,0,1,8.185-8.07A8.333,8.333,0,0,1-22.87,32.188ZM-34.5,19.051a3.584,3.584,0,0,1,3.579-3.581,3.584,3.584,0,0,1,3.579,3.581,3.583,3.583,0,0,1-3.579,3.579A3.583,3.583,0,0,1-34.5,19.051Zm18.36,26.034H-26.294v-5.4H-16.14Zm-10.153-6.572v-.02h-1.17v.02H-46.447v-5.13H3.993v5.13Z" transform="translate(47.617 -4.659)" fill="#FFFFFF"></path></svg>