<svg xmlns:xlink="http://www.w3.org/1999/xlink" xmlns="http://www.w3.org/2000/svg" width="16.74" height="16.842" viewBox="0 0 16.74 16.842">
<path d="M27.518,25.317l-5.137-5.137,5.137-5.137a1.558,1.558,0,1,0-2.2-2.2l-5.137,5.137-5.137-5.137a1.558,1.558,0,0,0-2.2,2.2l5.137,5.137-5.137,5.137a1.506,1.506,0,0,0,0,2.2,1.547,1.547,0,0,0,2.2,0l5.137-5.137,5.137,5.137a1.565,1.565,0,0,0,2.2,0A1.547,1.547,0,0,0,27.518,25.317Z" transform="translate(-11.859 -11.76)" fill="#01213F" stroke="none" stroke-width="0px"></path>
</svg>