<svg xmlns:xlink="http://www.w3.org/1999/xlink" xmlns="http://www.w3.org/2000/svg" width="33.012" height="33.886" viewBox="0 0 33.012 33.886"><path d="M-56.377-341.458l-16.112-9.029-12.8,5.332-.172-4.963,12.806-5.412,16.226,10.376Zm-16.064-9.862,15.3,8.572-.029-1.992-15.553-9.945-11.967,5.057.116,3.363ZM-56.4-335.538l-16.066-7.378L-85.4-338.448l-.076-4.035,13.014-5,16.013,8.2Zm-16.026-8.185,15.259,7.008-.029-2.107-15.313-7.838-12.211,4.689.046,2.477Zm16.049,14.111L-72.4-334.748l-12.962,3.134-.1-4.278,12.994-3.721,16.013,6.32Zm-15.993-5.914,15.221,4.879-.046-2.131L-72.5-338.822-84.7-335.331l.065,2.77Zm-12.252,7.342,12.256-2.318,15.079,3.6.03,5.061.75-.005-.034-5.649-15.807-3.769L-85.37-328.8v7.009h.75Zm29.788,6.466,0-.75-33.01.074,0,.75Z" transform="translate(87.844 355.53)" fill="#FFFFFF"></path></svg>