<svg xmlns:xlink="http://www.w3.org/1999/xlink" xmlns="http://www.w3.org/2000/svg" width="31.883" height="31.811" viewBox="0 0 31.883 31.811"><path d="M-42.034,13.906h.008a2.193,2.193,0,0,0,2.145-1.818h3.667l3.6,4.352h4.071v-.75h-3.717l-3.6-4.352h-4.02a2.161,2.161,0,0,0-.608-1.179,2.172,2.172,0,0,0-1.551-.638h-.006a2.179,2.179,0,0,0-1.547.649,2.182,2.182,0,0,0-.636,1.553A2.2,2.2,0,0,0-42.034,13.906ZM-43.06,10.7a1.439,1.439,0,0,1,1.026-.427h0a1.428,1.428,0,0,1,1.014.419,1.427,1.427,0,0,1,.424,1.016h0a1.445,1.445,0,0,1-1.436,1.449h-.006a1.445,1.445,0,0,1-1.443-1.436A1.437,1.437,0,0,1-43.06,10.7Zm2.282,8.858h8.973v-.75h-8.986a2.2,2.2,0,0,0-2.148-1.755,2.194,2.194,0,0,0-2.192,2.192,2.194,2.194,0,0,0,2.192,2.192A2.19,2.19,0,0,0-40.778,19.556Zm-3.6-.313A1.444,1.444,0,0,1-42.939,17.8,1.444,1.444,0,0,1-41.5,19.243a1.444,1.444,0,0,1-1.442,1.442A1.444,1.444,0,0,1-44.381,19.243Zm8.909-12.409a2.171,2.171,0,0,0,.775-.148l4.264,6.12h3.83a6.655,6.655,0,0,1,6.893,6.366,7.06,7.06,0,0,1-6.9,6.9l.018.75a7.812,7.812,0,0,0,7.634-7.643A7.405,7.405,0,0,0-26.6,12.056h-3.439L-34.053,6.3a2.181,2.181,0,0,0,.774-1.657,2.2,2.2,0,0,0-2.193-2.193,2.2,2.2,0,0,0-2.192,2.193A2.2,2.2,0,0,0-35.472,6.834Zm0-3.635a1.444,1.444,0,0,1,1.443,1.443,1.444,1.444,0,0,1-1.443,1.442,1.444,1.444,0,0,1-1.442-1.442A1.444,1.444,0,0,1-35.472,3.2Zm8,23.625v-.75h-3.926l-3.82,4.381a2.179,2.179,0,0,0-1.473-.58,2.195,2.195,0,0,0-2.192,2.193,2.195,2.195,0,0,0,2.192,2.192,2.2,2.2,0,0,0,2.193-2.192,2.167,2.167,0,0,0-.255-1l3.7-4.24Zm-9.219,6.686a1.444,1.444,0,0,1-1.442-1.442,1.444,1.444,0,0,1,1.442-1.443,1.444,1.444,0,0,1,1.443,1.443A1.444,1.444,0,0,1-36.687,33.51Zm20.7-11.359a11.25,11.25,0,0,1-1.127,2.6l1.594,1.806-3.487,3.551-1.9-1.545a10.328,10.328,0,0,1-2.718,1.1l-.018,2.351h-4.894V29.564h.75v1.7h3.4l.017-2.2.293-.064a9.612,9.612,0,0,0,3.006-1.214l.227-.14,1.78,1.448,2.52-2.566-1.5-1.7.149-.237a10.508,10.508,0,0,0,1.262-2.911l.074-.28H-14V17.478H-16.52l-.066-.294a12.473,12.473,0,0,0-1.319-3.443l-.123-.218,1.5-1.924L-19.049,9.02l-1.783,1.643-.243-.155a9.673,9.673,0,0,0-3.008-1.267l-.287-.067-.017-2.6h-3.4v2.74h-.75V5.826h4.894l.018,2.756a10.426,10.426,0,0,1,2.7,1.141l1.9-1.748,3.488,3.568-1.6,2.048a13.235,13.235,0,0,1,1.209,3.137h2.674v5.423Zm-19.859,4.871,3.6-4.352h5.682a3.494,3.494,0,0,0,3.49-3.489,3.5,3.5,0,0,0-3.49-3.491H-27.69v.75h1.122a2.744,2.744,0,0,1,2.74,2.741,2.743,2.743,0,0,1-2.74,2.739H-32.6l-3.6,4.352h-3.684a2.2,2.2,0,0,0-2.144-1.8,2.195,2.195,0,0,0-2.2,2.183,2.182,2.182,0,0,0,.636,1.553,2.179,2.179,0,0,0,1.556.648h.005a2.174,2.174,0,0,0,1.544-.637,2.166,2.166,0,0,0,.609-1.2Zm-4.748-.347a1.427,1.427,0,0,1-.424,1.016,1.431,1.431,0,0,1-1.021.418h0a1.433,1.433,0,0,1-1.018-.426,1.438,1.438,0,0,1-.418-1.022,1.445,1.445,0,0,1,1.443-1.436h.006a1.444,1.444,0,0,1,1.436,1.449Zm9.626-7.869h5.037v.75h-5.037Z" transform="translate(45.131 -2.449)" fill="#FFFFFF"></path></svg>