<svg xmlns:xlink="http://www.w3.org/1999/xlink" xmlns="http://www.w3.org/2000/svg" width="33.74" height="33.897" viewBox="0 0 33.74 33.897"><path d="M-64.873,65.341V76.729l1.565-1.566.531.531-2.471,2.47-2.47-2.47.53-.531,1.565,1.565V65.341h-4.835v8.177H-85.569V68.8h-6v15.86h15.933V80.482h-10.2l1.559,1.559-.53.531L-87.27,80.1l2.47-2.47.53.53-1.57,1.571h10.208V74.776h.75v4.956h6.962v4.859h8.462V68.247h.75V85.341H-68.67V80.482h-6.212v4.932H-92.315V68.054h6.746V60.9h-6.6V51.662h17.288v10.85l1.673-1.674.531.531-2.471,2.47-2.47-2.47.53-.531,1.457,1.456V52.412H-91.42v7.736h5.851v-3.87l-1.529,1.53-.531-.531,2.471-2.47,2.47,2.47-.53.531-1.6-1.6v3.942h4.714v6.613h-.75V60.9h-3.964v7.156h12.064v.75H-84.819v3.964h13.611V64.591h5.585V61.163h6.165v-8.9H-72.32v-.75h13.612v10.4h-6.165v2.678h6.3v.75Z" transform="translate(92.315 -51.517)" fill="#FFFFFF"></path></svg>