<svg xmlns:xlink="http://www.w3.org/1999/xlink" xmlns="http://www.w3.org/2000/svg" width="86.48" height="128.201" viewBox="0 0 86.48 128.201"><g transform="translate(-46.76 -25.891)"><path d="M110.306,148.874h-3.968l-3.967,3.967H96.023l-4.435-3.967h-3.5" fill="none" stroke="#FFFFFF" stroke-miterlimit="10" stroke-width="2.5px"></path><line x2="34.121" transform="translate(81.739 134.59)" fill="none" stroke="#FFFFFF" stroke-miterlimit="10" stroke-width="2.5px"></line><line x2="34.121" transform="translate(81.739 142.129)" fill="none" stroke="#FFFFFF" stroke-miterlimit="10" stroke-width="2.5px"></line><path d="M90.46,48.339a6.312,6.312,0,0,1-9.24,5.59v15.48H69.68a6.239,6.239,0,0,0,.96-3.34,6.31,6.31,0,1,0-12.62,0,6.239,6.239,0,0,0,.96,3.34H49.1a33.747,33.747,0,0,1,32.12-42.25v15.59a6.312,6.312,0,0,1,9.24,5.59Z" fill="none" stroke="#FFFFFF" stroke-miterlimit="10" stroke-width="2.5px"></path><path d="M131.99,76.609a33.172,33.172,0,0,1-1.57,10.12c-2.01,6.28-5.38,8.02-11.6,18.61s-4.62,23.98-4.62,23.98H83.32s-.92-13.34-4.6-23.98-9.55-12.39-11.54-18.61h10a5.885,5.885,0,1,1,9.11,0H98.8V70.789a5.825,5.825,0,0,0,2.84.73,5.885,5.885,0,1,0,0-11.77,5.825,5.825,0,0,0-2.84.73V43.419A33.19,33.19,0,0,1,131.99,76.609Z" fill="none" stroke="#FFFFFF" stroke-miterlimit="10" stroke-width="2.5px"></path><path d="M118.82,105.339c-6.23,10.59-4.62,23.98-4.62,23.98H98.8v-22.04a5.825,5.825,0,0,0,2.84.73,5.889,5.889,0,0,0,5.8-4.88,5.58,5.58,0,0,0,.09-1.01,5.894,5.894,0,0,0-5.89-5.89,5.825,5.825,0,0,0-2.84.73V86.729h12.5a5.9,5.9,0,1,1,9.11,0h10.01C128.41,93.009,125.04,94.749,118.82,105.339Z" fill="none" stroke="#FFFFFF" stroke-miterlimit="10" stroke-width="2.5px"></path></g></svg>