<svg xmlns:xlink="http://www.w3.org/1999/xlink" xmlns="http://www.w3.org/2000/svg" width="21.435" height="18.417" viewBox="0 0 21.435 18.417"><g transform="translate(0.008 0)"><path d="M158.3,142.221a3.073,3.073,0,0,0-.4-2.515c-.772-.977-2.416-1.013-3.542-.841a7.431,7.431,0,0,0-5.069,4.78c1.868-.142,2.847.135,2.667,2.191a7.554,7.554,0,0,1-1,2.707c-.561,1.042-1.611,3.088-2.989,1.613-1.241-1.327-1.148-3.865-1.432-5.556a23.263,23.263,0,0,0-.636-3.106,3.17,3.17,0,0,0-1.633-2.069,3.335,3.335,0,0,0-2.389.478,43.1,43.1,0,0,0-4.9,3.941v.12c.32.3.406.807.877.875,1.11.164,2.168-1.035,2.906.212a12.818,12.818,0,0,1,.876,2.418c.384,1.094.681,2.285,1,3.542.532,2.13,1.186,5.313,3.027,6.093a3.969,3.969,0,0,0,3.066-.559,17.11,17.11,0,0,0,4.737-4.5,30.6,30.6,0,0,0,4.834-9.824Z" transform="translate(-136.984 -138.786)" fill="#80ACD3" fill-rule="evenodd"></path></g></svg>