<svg xmlns:xlink="http://www.w3.org/1999/xlink" xmlns="http://www.w3.org/2000/svg" width="34.712" height="33.201" viewBox="0 0 34.712 33.201"><path d="M-62.27-141.172h4.833a2.6,2.6,0,0,0,1.856-.769,2.609,2.609,0,0,0,.77-1.857,2.617,2.617,0,0,0-2.143-2.582A3.318,3.318,0,0,0-61.184-148a3.326,3.326,0,0,0-1.907,2.058,2.462,2.462,0,0,0-1.558,2.926A2.457,2.457,0,0,0-62.27-141.172Zm-.423-4.109.216-.056.054-.217a2.577,2.577,0,0,1,1.522-1.753,2.558,2.558,0,0,1,.966-.19,2.56,2.56,0,0,1,1,.2,2.546,2.546,0,0,1,1.38,1.4l.085.21.224.022a1.872,1.872,0,0,1,1.689,1.868,1.862,1.862,0,0,1-.55,1.327,1.863,1.863,0,0,1-1.326.549H-62.27a1.705,1.705,0,0,1-1.652-1.282A1.708,1.708,0,0,1-62.693-145.281Zm-1.724,11.986-2.7-4.523h-4.6v-14.231l-9.441,4.042,8.69,3.743v6.446h-4.874l-4.36,7.7-2.031-1.5-5.79,12.771,34.433-.06-7.275-16.872Zm-14.841-14.71,6.791-2.907v5.832Zm-9.1,28.405,4.878-10.758,5.718,3.934,1.723-2.815,7.228,5.761.468-.587-7.892-6.289-1.754,2.863-3.122-2.147,4.208-7.43h9.358l2.6,4.343-3.036,3.75.58.474,4.838-5.856,6.338,14.7Zm1.43-17.546h3.077a1.8,1.8,0,0,0,1.278-.529,1.8,1.8,0,0,0,.53-1.279,1.8,1.8,0,0,0-1.409-1.764,2.231,2.231,0,0,0-1.116-1.027,2.239,2.239,0,0,0-1.72-.011,2.254,2.254,0,0,0-1.271,1.332,1.7,1.7,0,0,0-1.015,2A1.7,1.7,0,0,0-86.928-137.146Zm-.236-2.62.217-.056.054-.216A1.5,1.5,0,0,1-86-141.061a1.5,1.5,0,0,1,.564-.111,1.49,1.49,0,0,1,.581.118,1.489,1.489,0,0,1,.805.815l.085.21.225.022a1.055,1.055,0,0,1,.952,1.053,1.048,1.048,0,0,1-.31.748,1.05,1.05,0,0,1-.748.31h-3.077a.95.95,0,0,1-.919-.713A.95.95,0,0,1-87.164-139.766Z" transform="translate(89.522 152.049)" fill="#FFFFFF"></path></svg>