<svg xmlns:xlink="http://www.w3.org/1999/xlink" xmlns="http://www.w3.org/2000/svg" width="34.337" height="29.941" viewBox="0 0 34.337 29.941"><path d="M-7.514-295.512l-10.958-6.02-1.557,1.556a6.114,6.114,0,0,0-2.3-.42c-2.2,0-3.92.981-3.92,2.234v1.083h-5.314l-10.29,6.106v6.282l7.155,1.843v2.2c0,3.676,5.548,6.667,12.369,6.667.667,0,1.339-.033,2-.09l2.443,2.476,1.1-.356v-2.732c4.216-1.128,6.825-3.394,6.825-5.965v-6.972l2.445-2.317Zm-14.813-4.134c1.867,0,3.169.782,3.169,1.484s-1.3,1.485-3.169,1.485-3.17-.783-3.17-1.485S-24.195-299.646-22.327-299.646Zm-3.92,7.112c-3,.684-4.935,2.137-4.935,3.739,0,2.338,3.835,4.169,8.731,4.169.607,0,1.209-.036,1.8-.094v2.105c-.552.041-1.111.073-1.676.073-6.407,0-11.619-2.654-11.619-5.917,0-2.457,3.153-4.72,7.7-5.562Zm5.6,7.061a17.513,17.513,0,0,1-1.8.1c-4.326,0-7.981-1.565-7.981-3.419,0-1.174,1.709-2.365,4.185-2.966v1.58c0,1.253,1.722,2.235,3.92,2.235a6.51,6.51,0,0,0,1.676-.233Zm0-8.462v4.984a5.651,5.651,0,0,1-1.676.255c-1.868,0-3.17-.783-3.17-1.485v-6.661a5.239,5.239,0,0,0,3.17.915,5.234,5.234,0,0,0,3.169-.915v3.361l-.621-.81Zm3.013,2.434c2.189.652,3.554,1.667,3.554,2.706,0,.875-1.009,1.766-2.7,2.415v-4.008Zm.854,5.927c2.225-.789,3.45-1.933,3.45-3.221,0-1.586-1.887-2.949-5.045-3.672l-.029-.037v-1.517c4.546.842,7.7,3.105,7.7,5.562,0,2.143-2.37,4.149-6.075,5.188Zm-24.317.3v-5.274l9.746-5.783h5.108v1.544c-5.059.9-8.449,3.429-8.449,6.326v4.836Zm7.155,4.628V-286.2c1.725,2.563,6.275,4.4,11.619,4.4.565,0,1.123-.033,1.676-.073v7.063c-.556.041-1.116.075-1.676.075C-28.734-274.727-33.946-277.381-33.946-280.644Zm16.412,8.151-.142.046L-19.9-274.7v-18.516l2.367,3.085Zm.75-2.963v-7.037c2.884-.772,5.017-2.076,6.075-3.647v5.5C-10.709-278.5-13.078-276.495-16.784-275.456Zm8.52-14.8-1.7,1.616h0c-.138-2.821-3.482-5.264-8.436-6.146v-3.457h-.014a1.836,1.836,0,0,0-.916-1.364l1-1,10.076,5.536Z" transform="translate(41.851 301.532)" fill="#FFFFFF"></path></svg>