<svg xmlns:xlink="http://www.w3.org/1999/xlink" xmlns="http://www.w3.org/2000/svg" width="50.427" height="59" viewBox="0 0 50.427 59"><g transform="translate(-811.05 -3838.77)"><path d="M127,445.02V437h-4a16.779,16.779,0,0,0-2.194-5.176l2.6-3-5.043-5.165-3.087,2.5a17,17,0,0,0-5.244-2.229L110,420h-7v43h7l.029-4.531a16.988,16.988,0,0,0,5.244-2.229l3.087,2.835,5.043-5.165-2.6-3.335A19.1,19.1,0,0,0,123,445Z" transform="translate(733.977 3426.77)" fill="none" stroke="#00223E" stroke-width="1"></path><path d="M103,463h7l.029-4.531a16.988,16.988,0,0,0,5.244-2.229l3.087,2.835,5.043-5.164-2.6-3.336A19.1,19.1,0,0,0,123,445l4,.02V437h-4a16.779,16.779,0,0,0-2.194-5.176l2.6-3-5.043-5.165-3.087,2.5a16.974,16.974,0,0,0-5.244-2.228L110,420h-7" transform="translate(733.977 3426.77)" fill="none" stroke="#00223E" stroke-miterlimit="10" stroke-width="1"></path><line y2="51" transform="translate(836.977 3842.77)" fill="none" stroke="#00223E" stroke-miterlimit="10" stroke-width="1"></line><path d="M104,446h1.712a5.008,5.008,0,1,0,0-10H104" transform="translate(733.977 3426.77)" fill="none" stroke="#00223E" stroke-width="1"></path><path d="M104,446h1.712a5.008,5.008,0,1,0,0-10H104" transform="translate(733.977 3426.77)" fill="none" stroke="#00223E" stroke-miterlimit="10" stroke-width="1"></path><line y1="2" transform="translate(836.977 3838.77)" fill="none" stroke="#00223E" stroke-miterlimit="10" stroke-width="1"></line><line y1="2" transform="translate(836.977 3895.77)" fill="none" stroke="#00223E" stroke-miterlimit="10" stroke-width="1"></line><path d="M97,420c-3.105-.2-6.569,1.607-7.407,4.2a7,7,0,0,0-7.13,7.3,8.332,8.332,0,0,0,.062.965c-2.88,1.048-4.952,4.313-4.952,8.323a10.95,10.95,0,0,0,2.185,6.653,8.025,8.025,0,0,0-.181,2.953c.524,4.292,4.2,7.633,8.21,7.478a8.1,8.1,0,0,0,7.389,5.1C100.5,462.981,103,460,103,460V423A9.015,9.015,0,0,0,97,420Z" transform="translate(733.977 3426.77)" fill="none" stroke="#00223E" stroke-miterlimit="10" stroke-width="1"></path><path d="M96.154,432.853A7.186,7.186,0,0,1,89.309,426a5.865,5.865,0,0,1,.283-1.812" transform="translate(733.977 3426.77)" fill="none" stroke="#00223E" stroke-miterlimit="10" stroke-width="1"></path><path d="M87.353,441.117c2.141,1.336,4.627.45,6.413-1.412,2.258-2.354,5.977-3.087,8.235-.439a7,7,0,0,1,1,1.547" transform="translate(733.977 3426.77)" fill="none" stroke="#00223E" stroke-miterlimit="10" stroke-width="1"></path><path d="M102.911,429.056a6.327,6.327,0,0,1-6.757-4.234" transform="translate(733.977 3426.77)" fill="none" stroke="#00223E" stroke-miterlimit="10" stroke-width="1"></path><path d="M102.911,453.1a5.5,5.5,0,0,0-6.757,3.354" transform="translate(733.977 3426.77)" fill="none" stroke="#00223E" stroke-miterlimit="10" stroke-width="1"></path><path d="M89.115,451.424c-1.719-.514-3.436-1.8-3.436-3.437" transform="translate(733.977 3426.77)" fill="none" stroke="#00223E" stroke-miterlimit="10" stroke-width="1"></path><path d="M88.331,459a6.517,6.517,0,0,1-.978-3.389,6.589,6.589,0,0,1,6.856-6.41.785.785,0,0,0,.791-.85v-.007c0-2.621,2.446-3.507,4-3.4" transform="translate(733.977 3426.77)" fill="none" stroke="#00223E" stroke-miterlimit="10" stroke-width="1"></path><path d="M83.441,437.515a3.593,3.593,0,0,1,3.423,3.425,3.072,3.072,0,0,1-3.423,2.979" transform="translate(733.977 3426.77)" fill="none" stroke="#00223E" stroke-miterlimit="10" stroke-width="1"></path><path d="M88.019,434.761a3.623,3.623,0,0,1,4.037-3.515" transform="translate(733.977 3426.77)" fill="none" stroke="#00223E" stroke-miterlimit="10" stroke-width="1"></path><path d="M106.2,429.2a11.8,11.8,0,1,1,0,23.6" transform="translate(733.977 3426.77)" fill="none" stroke="#00223E" stroke-miterlimit="10" stroke-width="1"></path></g></svg>