<svg xmlns:xlink="http://www.w3.org/1999/xlink" xmlns="http://www.w3.org/2000/svg" width="25.229" height="25.175" viewBox="0 0 25.229 25.175"><path d="M-407.314,19.3h-22.366a1.4,1.4,0,0,0-1.4,1.4V43.07a1.4,1.4,0,0,0,1.4,1.4h12.047V34.751h-3.3V30.969h3.3V28.16c0-3.241,2-5.024,4.862-5.024a26.4,26.4,0,0,1,2.917.162v3.4h-2c-1.567,0-1.891.756-1.891,1.837v2.431h3.782l-.486,3.782h-3.241v9.724h6.429a1.4,1.4,0,0,0,1.4-1.4V20.651A1.51,1.51,0,0,0-407.314,19.3Z" transform="translate(431.084 -19.3)" fill="#80ACD3"></path></svg>