<svg xmlns:xlink="http://www.w3.org/1999/xlink" xmlns="http://www.w3.org/2000/svg" width="33.103" height="31.431" viewBox="0 0 33.103 31.431"><path d="M-14.466-326.349H-36.78a1.494,1.494,0,0,0-1.493,1.492v.558a1.494,1.494,0,0,0,1.493,1.492H-35.1v0H-13.8l2.831-1.766-2.831-1.772Zm-23.057,2.05v-.558a.743.743,0,0,1,.743-.742h1.3v2.042h-1.3A.743.743,0,0,1-37.523-324.3Zm2.794-1.3H-15.4v2.038H-34.729Zm20.715,2.038h-.636V-325.6h.635l1.632,1.021Zm1.59-9.083a1.209,1.209,0,0,1,.748-.209A1.858,1.858,0,0,1-9.819-331h.75v-16.731a2.61,2.61,0,0,0-2.607-2.606c-.92,0-1.492.357-1.492.933v1.856h-2.6v-6.693h-1.156l-6.878,6.693H-38.074V-349.4c0-.576-.572-.933-1.493-.933a2.608,2.608,0,0,0-2.6,2.606v16.733h0a2.609,2.609,0,0,0,2.6,2.606h27.889a2.611,2.611,0,0,0,2.607-2.607h-.75a1.859,1.859,0,0,1-1.857,1.857H-39.567a1.858,1.858,0,0,1-1.855-1.857h0a1.858,1.858,0,0,1,1.854-1.857,1.21,1.21,0,0,1,.749.21.064.064,0,0,1-.007-.027h.75l0-14.125h13.5l-12.025,11.7v1.125h20.83V-346.8h2.6v14.125Zm.006-16.765a1.129,1.129,0,0,1,.742-.175,1.859,1.859,0,0,1,1.857,1.856v14.9a2.6,2.6,0,0,0-1.857-.778,2.458,2.458,0,0,0-.742.117Zm-26.408,15.923a2.486,2.486,0,0,0-2.6.661v-14.9a1.858,1.858,0,0,1,1.855-1.856c.436,0,.715.114.743.183Zm22.311-1.231h-2.6v-1.3h-.75v1.3H-21.9v-1.3h-.75v1.3h-2.039v-1.3h-.75v1.3h-2.04v-1.3h-.75v1.3h-2.038v-1.3h-.75v1.3h-4.828v-.059l19.228-18.712h.1Zm-11.156-4.242v1.089h8.56v-8.559H-20.2Zm7.81.339h-7.06l7.032-7.059Z" transform="translate(42.172 354.238)" fill="#FFFFFF"></path></svg>