<svg xmlns="http://www.w3.org/2000/svg" xmlns:xlink="http://www.w3.org/1999/xlink" width="138.817" height="128.989" viewBox="0 0 138.817 128.989"><defs><filter id="solutionpath-icon" x="0" y="0" width="138.817" height="128.989" filterUnits="userSpaceOnUse"><feOffset dy="3" input="SourceAlpha"></feOffset><feGaussianBlur stdDeviation="10" result="b"></feGaussianBlur><feFlood flood-color="#fff" flood-opacity="0.557"></feFlood><feComposite operator="in" in2="b"></feComposite><feComposite in="SourceGraphic"></feComposite></filter></defs>
<rect fill="#002E55" stroke-width="0px" stroke-linecap="null" stroke="none" width="78.8167" height="69.0167" x="30" y="26" fill-opacity="0"></rect><g transform="matrix(1, 0, 0, 1, 0, 0)" data-filter="url(https://www.zeta.com/en/#solutionpath-icon)" filter="url(https://www.zeta.com/en/#solutionpath-icon)"><path d="M58.873,33.165C53.788,24.916,41.471,3.051,39.719,0,32.431,12.938,24.8,25.029,18.7,37.855,13.164,49.437,20.17,63.393,32.318,67.574a20.6,20.6,0,0,0,4.52,1.243,35.063,35.063,0,0,0,6.949,0C59.268,66.161,68.026,48.081,58.873,33.165ZM49.042,57.686a14.752,14.752,0,0,1-17.854.452C25.764,54.3,23,46.895,25.933,40.906,30,32.487,34.917,24.521,39.776,15.876c4.8,8.418,9.548,16.215,13.616,24.295C56.5,46.217,54.3,53.505,49.042,57.686ZM25.368,68.365H0C1.864,65.37,4.52,61.3,6.328,58.251c2.26-3.842,4.463-7.74,7.119-12.317C14.181,55.6,18.249,62.545,25.368,68.365Zm53.449-.452H53.675c7.627-5.311,11.7-12.2,12.486-21.978C70.625,53.675,74.636,60.624,78.817,67.913Z" transform="translate(30 27)" fill="#FFFFFF"></path></g></svg>