<svg xmlns:xlink="http://www.w3.org/1999/xlink" id="Ebene_2" xmlns="http://www.w3.org/2000/svg" viewBox="0 0 128.27 128.27" width="128.27"  height="128.27" ><defs><style>.cls-1{stroke-linecap:round}.cls-1,.cls-2{fill:none;stroke:#fff;stroke-miterlimit:10;stroke-width:2.5px}</style></defs><g id="Ebene_1-2"><g id="icons"><g><circle class="cls-2" cx="66.3" cy="122.28" r="4.73" stroke="#FFFFFF" fill="none" stroke-width="2.5px"></circle><circle class="cls-2" cx="99.02" cy="112.43" r="4.73" stroke="#FFFFFF" fill="none" stroke-width="2.5px"></circle><circle class="cls-2" cx="33.97" cy="113.22" r="4.73" stroke="#FFFFFF" fill="none" stroke-width="2.5px"></circle><circle class="cls-2" cx="122.28" cy="61.96" r="4.73" stroke="#FFFFFF" fill="none" stroke-width="2.5px"></circle><circle class="cls-2" cx="112.82" cy="94.29" r="4.73" stroke="#FFFFFF" fill="none" stroke-width="2.5px"></circle><circle class="cls-2" cx="112.43" cy="29.24" r="4.73" stroke="#FFFFFF" fill="none" stroke-width="2.5px"></circle><circle class="cls-2" cx="5.98" cy="66.7" r="4.73" stroke="#FFFFFF" fill="none" stroke-width="2.5px"></circle><circle class="cls-2" cx="15.84" cy="99.02" r="4.73" stroke="#FFFFFF" fill="none" stroke-width="2.5px"></circle><circle class="cls-2" cx="15.44" cy="33.97" r="4.73" stroke="#FFFFFF" fill="none" stroke-width="2.5px"></circle><circle class="cls-2" cx="61.96" cy="5.98" r="4.73" stroke="#FFFFFF" fill="none" stroke-width="2.5px"></circle><circle class="cls-2" cx="29.24" cy="15.84" r="4.73" stroke="#FFFFFF" fill="none" stroke-width="2.5px"></circle><circle class="cls-2" cx="94.29" cy="15.44" r="4.73" stroke="#FFFFFF" fill="none" stroke-width="2.5px"></circle><path class="cls-2" d="M78.92,45.01c3.55,7.88,1.18,21.68-7.49,28.78-6.7,5.13-15.77,5.13-20.5-.79-4.73-5.52-3.55-14.59,2.76-19.71,6.31-5.52,16.95-2.37,25.23-8.28Z" stroke="#FFFFFF" fill="none" stroke-width="2.5px"></path><path class="cls-1" d="M47.38,83.25c1.97-7.88,9.46-16.56,18.53-21.68" stroke="#FFFFFF" fill="none" stroke-width="2.5px"></path><polyline class="cls-2" points="10.32 66.7 33.97 66.7 33.97 33.97 54.08 33.97" stroke="#FFFFFF" fill="none" stroke-width="2.5px"></polyline><polyline class="cls-2" points="15.44 38.31 15.44 52.5 26.48 52.5" stroke="#FFFFFF" fill="none" stroke-width="2.5px"></polyline><polyline class="cls-2" points="34.76 15.84 47.77 15.84 47.77 32.79" stroke="#FFFFFF" fill="none" stroke-width="2.5px"></polyline><polyline class="cls-2" points="61.57 9.92 61.57 33.97 94.29 33.97 94.29 54.47" stroke="#FFFFFF" fill="none" stroke-width="2.5px"></polyline><polyline class="cls-2" points="90.35 15.44 75.76 15.44 75.76 26.09" stroke="#FFFFFF" fill="none" stroke-width="2.5px"></polyline><polyline class="cls-2" points="112.43 33.58 112.43 48.17 95.48 48.17" stroke="#FFFFFF" fill="none" stroke-width="2.5px"></polyline><polyline class="cls-2" points="118.34 61.96 94.29 61.96 94.29 94.29 74.19 94.29" stroke="#FFFFFF" fill="none" stroke-width="2.5px"></polyline><polyline class="cls-2" points="112.82 90.35 112.82 75.76 101.78 75.76" stroke="#FFFFFF" fill="none" stroke-width="2.5px"></polyline><polyline class="cls-2" points="94.69 112.43 80.49 112.43 80.49 95.87" stroke="#FFFFFF" fill="none" stroke-width="2.5px"></polyline><polyline class="cls-2" points="66.3 119.13 66.3 94.29 33.97 94.29 33.97 73.79" stroke="#FFFFFF" fill="none" stroke-width="2.5px"></polyline><polyline class="cls-2" points="37.92 113.22 52.5 113.22 52.5 102.18" stroke="#FFFFFF" fill="none" stroke-width="2.5px"></polyline><polyline class="cls-2" points="15.84 94.69 15.84 80.49 32.4 80.49" stroke="#FFFFFF" fill="none" stroke-width="2.5px"></polyline></g></g></g></svg>