<svg xmlns:xlink="http://www.w3.org/1999/xlink" xmlns="http://www.w3.org/2000/svg" width="45.443" height="45.596" viewBox="0 0 45.443 45.596"><path d="M13.866,2.313v8.745l-6.894.7L8.935,21.943l-5.247.8,10.149,25.14.03-.011v.034H49.131V2.313Zm0,10.312V39.3L8.825,13.14ZM9.229,23.476l3.255,16.892L5.871,23.99ZM47.572,46.349H15.426V3.873H47.572Z" transform="translate(-3.688 -2.313)" fill="#FFFFFF"></path><rect width="22.865" height="1.56" transform="translate(16.378 25.73)" fill="#FFFFFF"></rect><rect width="7.419" height="1.56" transform="translate(31.824 19.491)" fill="#FFFFFF"></rect><rect width="7.419" height="1.56" transform="translate(31.824 13.253)" fill="#FFFFFF"></rect><rect width="7.419" height="1.56" transform="translate(31.824 7.014)" fill="#FFFFFF"></rect><path d="M32.711,22.813H14.189v1.56H37.054V22.806H32.711Z" transform="translate(2.189 9.156)" fill="#FFFFFF"></path><path d="M32.711,26.813H14.189v1.56H37.054V26.806H32.711Z" transform="translate(2.189 11.394)" fill="#FFFFFF"></path><path d="M20.4,20.631a6.96,6.96,0,1,0-6.961-6.961A6.967,6.967,0,0,0,20.4,20.631Zm0-12.36a5.4,5.4,0,1,1-5.4,5.4A5.406,5.406,0,0,1,20.4,8.271Z" transform="translate(1.767 0.148)" fill="#FFFFFF"></path></svg>