<svg xmlns:xlink="http://www.w3.org/1999/xlink" xmlns="http://www.w3.org/2000/svg" width="26.552" height="35.28" viewBox="0 0 26.552 35.28"><path d="M73.6,14.936a7.08,7.08,0,1,0-7.08,7.08A7.088,7.088,0,0,0,73.6,14.936Zm-7.08,6.33a6.33,6.33,0,1,1,6.33-6.33A6.338,6.338,0,0,1,66.519,21.266Zm3.068-8.735.53.53-4.624,4.624L63.15,15.343l.531-.531,1.812,1.813Zm6.045,11.018.469-5.194,3.427-4.187-3.764-3.779-.111-5.617-5.393.336L66.242.866,62.774,5.118l-5.818-.753-.005,6.11-3.974,3.694,3.7,4.119.2,5.261,1.671.2-3.334,9.814,4.345-1.807,2.349,4.08,3.184-9.373,1.161.967,1.241-.947,3.281,9.66,2.349-4.08,4.345,1.807L74.032,23.756Zm-13.9,10.479L59.88,30.813l-3.422,1.423,2.851-8.392,3.084.375,2.082,1.733ZM62.7,23.5l-5.1-.619-.184-4.894-3.391-3.772L57.7,10.8l0-5.585,5.386.7L66.284,2l3.672,3.879,4.963-.31.1,5.136,3.5,3.512-3.143,3.842-.436,4.824-4.771.618-3.895,2.973Zm10.609.466,2.913,8.577L72.8,31.121l-1.851,3.215-2.827-8.322,0-.007,2.343-1.788,2.833-.368A.353.353,0,0,0,73.312,23.967Z" transform="translate(-52.977 -0.866)" fill="#FFFFFF"></path></svg>