<svg xmlns:xlink="http://www.w3.org/1999/xlink" xmlns="http://www.w3.org/2000/svg" width="34.773" height="34.768" viewBox="0 0 34.773 34.768"><path d="M3.915,80.726l.855.855-.53.53-.855-.855ZM21.891,52.493l.2-.723A17.4,17.4,0,0,0,7.78,54.051l.416.624A16.635,16.635,0,0,1,21.891,52.493ZM2.181,60.157a17.337,17.337,0,0,0,0,16.709l.658-.36a16.588,16.588,0,0,1,0-15.989Zm6.54,22.525-.392.639a17.307,17.307,0,0,0,16.869.732l-.335-.671A16.565,16.565,0,0,1,8.721,82.682Zm22.535-4.945.624.416a17.3,17.3,0,0,0,2.032-15.131l-.712.236A16.546,16.546,0,0,1,31.256,77.737Zm1.477,3.434a2.2,2.2,0,0,1,0,3.113l-.861.86a2.2,2.2,0,0,1-3.112,0l-6.776-6.776H19.25l-.061-.3c-.466-2.293-.466-2.293-.378-2.43l.05-.061,1.027-1.027-2.457-2.457L5.66,83.862a2.187,2.187,0,0,1-1.557.644h0a2.186,2.186,0,0,1-1.555-.644L1.687,83a2.2,2.2,0,0,1,0-3.111L13.459,68.121,7.323,61.985,5.13,61.546,1.43,56,3.586,53.84l5.55,3.7.439,2.193,6.136,6.136,5.177-5.176c-.917-2.594-.729-4.49.572-5.791l1.291-1.291a5.174,5.174,0,0,1,6.486-.916l.407.248-3.78,3.781a.23.23,0,0,0-.072.165.225.225,0,0,0,.066.16l2.582,2.582a.243.243,0,0,0,.34,0l3.778-3.778.248.408a5.177,5.177,0,0,1-.929,6.495L30.6,64.039c-1.317,1.318-3.2,1.524-5.737.626l-5.178,5.176L22.14,72.3l1.025-1.025c.142-.151.14-.151,2.493.329l.3.061v.307s0,1.881,0,2.425ZM16.242,66.4l1.165,1.166,5.345-5.345.53.53L17.937,68.1l1.216,1.216c5.448-5.446,5.458-5.455,5.613-5.455l.131.024c2.385.889,4.028.772,5.171-.371l1.291-1.292a4.434,4.434,0,0,0,1.034-5.136l-3.086,3.086a1,1,0,0,1-1.4-.006l-2.582-2.582a.977.977,0,0,1,0-1.382l3.09-3.09a4.427,4.427,0,0,0-5.127,1.022l-1.3,1.3c-1.125,1.126-1.225,2.786-.317,5.227l.084.225Zm.659,5.164-1.216-1.216L5.637,80.395l-.531-.53L15.154,69.817l-1.165-1.165L2.218,80.421a1.447,1.447,0,0,0-.006,2.045l.866.865a1.452,1.452,0,0,0,2.05,0Zm3.517,2.456,1.192-1.191L8.884,60.1l-.423-2.111L3.682,54.805,2.395,56.092l3.187,4.779,2.111.423ZM32.2,81.7l-6.886-6.887c-.11-.094-.113-.1-.11-2.541-.449-.091-1.283-.261-1.651-.333l-.886.886v0l-2.252,2.252h0l-.887.887c.072.37.241,1.2.332,1.651h2.431l7,7a1.453,1.453,0,0,0,2.052,0l.861-.861A1.453,1.453,0,0,0,32.2,81.7Zm-9.036-5.6,7.317,7.317.53-.531L23.7,75.577Z" transform="translate(-0.035 -51.132)" fill="#FFFFFF"></path></svg>