<svg xmlns:xlink="http://www.w3.org/1999/xlink" xmlns="http://www.w3.org/2000/svg" width="33.788" height="34.763" viewBox="0 0 33.788 34.763"><path d="M-57.869-249.025c.086-.972.137-1.951.137-2.938v-.375H-81.758v.375c0,.987.051,1.966.137,2.938h-5.018v.375a15.589,15.589,0,0,0,10.381,15.078l.238.078a25.808,25.808,0,0,0,4.236,4.622,3.142,3.142,0,0,0,1.664.732v7.415h-6.1v.75h12.953v-.75h-6.1v-7.415a3.142,3.142,0,0,0,1.664-.732,25.79,25.79,0,0,0,4.249-4.642l.006.016.355-.12A15.628,15.628,0,0,0-52.851-248.65v-.375Zm-28.015.75h4.334a31.58,31.58,0,0,0,4.808,13.721A14.87,14.87,0,0,1-85.884-248.275Zm17.693,18.832a2.363,2.363,0,0,1-3.108,0c-5.995-5.1-9.607-13.351-9.707-22.145h22.522C-58.584-242.794-62.2-234.538-68.191-229.443Zm5.444-5.114a31.561,31.561,0,0,0,4.807-13.718H-53.6A14.9,14.9,0,0,1-62.747-234.557Zm-15.847,16.232h17.7v.75h-17.7Zm14.726-25.819-4.06-.6-1.811-3.682-1.821,3.676-4.062.585,2.935,2.868-.7,4.044,3.635-1.9,3.629,1.914-.688-4.045ZM-69.75-240l-2.638,1.383.508-2.934-2.13-2.082,2.947-.424,1.322-2.669,1.314,2.672,2.947.432-2.135,2.077.5,2.935Z" transform="translate(86.639 252.338)" fill="#FFFFFF"></path></svg>