<svg xmlns:xlink="http://www.w3.org/1999/xlink" class="mobile" xmlns="http://www.w3.org/2000/svg" width="375.001" height="476.648" viewBox="0 0 375.001 476.648" preserveAspectRatio="none"><path d="M-4520.5,6236.647c-15.867,0-31.9-.51-47.662-1.516-15.614-1-31.377-2.505-46.853-4.486-15.332-1.962-30.792-4.44-45.953-7.364-15.03-2.9-30.157-6.315-44.96-10.15-14.69-3.806-29.453-8.127-43.876-12.844-14.319-4.683-28.685-9.879-42.7-15.445-13.925-5.531-27.864-11.572-41.43-17.955-13.495-6.349-26.976-13.2-40.068-20.372V5760h375v476.341C-4506.15,6236.544-4513.384,6236.647-4520.5,6236.647Z" transform="translate(4874 -5760)" fill="#081F3B"></path></svg>