<svg xmlns:xlink="http://www.w3.org/1999/xlink" xmlns="http://www.w3.org/2000/svg" width="22.567" height="33.797" viewBox="0 0 22.567 33.797"><path d="M-109.773-183.8l-9.756-16.9-9.756,16.9a11.149,11.149,0,0,0,0,11.266,11.15,11.15,0,0,0,9.756,5.633,11.15,11.15,0,0,0,9.756-5.633A11.149,11.149,0,0,0-109.773-183.8Zm-.649,10.891a10.407,10.407,0,0,1-9.107,5.258,10.407,10.407,0,0,1-9.107-5.258,10.408,10.408,0,0,1,0-10.516l9.107-15.773,9.107,15.773A10.408,10.408,0,0,1-110.422-172.909Zm-8.024-14.067a1.084,1.084,0,0,1-1.083,1.083,1.084,1.084,0,0,1-1.083-1.083,1.084,1.084,0,0,1,1.083-1.083A1.084,1.084,0,0,1-118.446-186.976Zm-2.015,4.629h1.78v8.11h-1.78Z" transform="translate(130.813 200.698)" fill="#FFFFFF"></path></svg>