<svg xmlns:xlink="http://www.w3.org/1999/xlink" xmlns="http://www.w3.org/2000/svg" width="29.375" height="34.904" viewBox="0 0 29.375 34.904"><path d="M-133.091-345.246l3.387.908-.2.725-3.386-.908Zm3.547,14.688.53.531,2.48-2.48-.531-.531Zm25.634-13.963-.195-.725-3.387.908.195.725Zm-17.327-7.753-.908-3.387-.725.194.908,3.387Zm6.911-3.193-.725-.194-.907,3.387.724.194Zm-3.747,33.96h-1.289l-1.066-1.066h-1.222v.75h.912l1.066,1.066h1.91l1.066-1.066h.911v-.75h-1.221Zm-15.212-15.92.194.725,3.387-.907-.2-.725Zm6.751-12.014-2.48-2.479-.53.53,2.479,2.48Zm15.872,0,.531.531,2.479-2.48-.53-.53Zm1.649,8.9a9.921,9.921,0,0,1-3.008,7.137,8.166,8.166,0,0,0-2.856,4.8v.333h-7.681v-.324a8.8,8.8,0,0,0-2.855-4.813,9.914,9.914,0,0,1-3.009-7.138,9.957,9.957,0,0,1,2.976-7.112h0a9.2,9.2,0,0,1,6.728-2.646c.044,0,.087,0,.132,0a9.142,9.142,0,0,1,5.409,1.675,9.548,9.548,0,0,1,1.188.969,9.953,9.953,0,0,1,2.975,7.112Zm-.75,0a9.078,9.078,0,0,0-2.749-6.575,8.744,8.744,0,0,0-1.112-.907c-.081-.056-.158-.119-.24-.173a8.458,8.458,0,0,0-4.843-1.354,8.464,8.464,0,0,0-5.562,1.857c-.053.042-.1.091-.153.135-.17.142-.34.285-.5.441a9.085,9.085,0,0,0-2.749,6.575,9.17,9.17,0,0,0,2.78,6.6c1.529,1.469,2.924,2.809,3.072,4.927h6.206c.148-2.114,1.535-3.449,3-4.857l.073-.071A9.166,9.166,0,0,0-109.763-340.535Zm-.9,8.028,2.48,2.48.53-.531-2.479-2.48Zm3.17-5.1,3.387.907.195-.725-3.387-.907Zm-6.053-4.731h1.867v3.416h-1.868a3.835,3.835,0,0,1-.3.728l1.319,1.3-2.417,2.417-1.328-1.328a5.44,5.44,0,0,1-.733.3v1.909h-3.416V-335.5a5.564,5.564,0,0,1-.733-.3l-1.328,1.33-2.417-2.412,1.318-1.311a3.844,3.844,0,0,1-.3-.729h-1.867v-3.416h1.865a3.988,3.988,0,0,1,.31-.757l-1.319-1.336,2.413-2.414,1.328,1.328a5.4,5.4,0,0,1,.734-.3v-1.849h3.416v1.85a5.4,5.4,0,0,1,.734.3l1.328-1.325,2.413,2.418-1.32,1.327A3.958,3.958,0,0,1-113.545-342.34Zm1.117.75h-1.711l-.064-.3a3.254,3.254,0,0,0-.436-1.069l-.16-.253,1.207-1.214-1.356-1.359-1.2,1.2-.248-.142a4.675,4.675,0,0,0-1.089-.452l-.276-.075v-1.665h-1.916v1.665l-.277.075a4.642,4.642,0,0,0-1.089.45l-.249.142-1.2-1.2-1.356,1.356,1.207,1.222-.16.252a3.272,3.272,0,0,0-.436,1.069l-.063.3h-1.711v1.916h1.71l.064.3a3.075,3.075,0,0,0,.434,1.038l.167.255-1.209,1.2,1.353,1.35,1.2-1.2.248.142a4.636,4.636,0,0,0,1.089.448l.278.076v1.724h1.916v-1.724l.276-.075a4.653,4.653,0,0,0,1.089-.451l.249-.142,1.2,1.2,1.353-1.353-1.209-1.195.168-.256a3.072,3.072,0,0,0,.433-1.038l.065-.3h1.71Zm-10.287,15.5h8v-.75h-8Zm6.239-14.544a2.244,2.244,0,0,1-2.241,2.241,2.243,2.243,0,0,1-2.241-2.241,2.244,2.244,0,0,1,2.241-2.241A2.244,2.244,0,0,1-116.476-340.632Zm-.75,0a1.493,1.493,0,0,0-1.491-1.491,1.493,1.493,0,0,0-1.491,1.491,1.493,1.493,0,0,0,1.491,1.491A1.493,1.493,0,0,0-117.226-340.632Zm-5.489,16.676h8v-.75h-8Z" transform="translate(133.285 355.661)" fill="#FFFFFF"></path></svg>