<svg xmlns:xlink="http://www.w3.org/1999/xlink" xmlns="http://www.w3.org/2000/svg" width="34.183" height="31.706" viewBox="0 0 34.183 31.706"><path d="M30.887,22.022l.708.248-.756,2.161H13.362l1.087,3.437H29.568v.75H13.9L7.707,9.037H1.671v-.75H8.257l1.137,3.6h6.482v.75H9.632l3.493,11.046H30.307Zm-13.444,10.4A2.346,2.346,0,1,1,15.1,30.078,2.348,2.348,0,0,1,17.443,32.423Zm-.75,0a1.6,1.6,0,1,0-1.6,1.6A1.6,1.6,0,0,0,16.693,32.423Zm12.778,0a2.346,2.346,0,1,1-2.346-2.345A2.349,2.349,0,0,1,29.471,32.423Zm-.75,0a1.6,1.6,0,1,0-1.6,1.6A1.6,1.6,0,0,0,28.721,32.423Zm4.7-18.056a4.876,4.876,0,0,1-.46,1.1l1.72,1.7-3.02,3.019L29.93,18.457a6.952,6.952,0,0,1-1.111.46V21.4H24.551V18.917a7.032,7.032,0,0,1-1.111-.457l-1.729,1.732-3.02-3.014,1.72-1.709a4.861,4.861,0,0,1-.461-1.1H17.515V10.1h2.434a5.142,5.142,0,0,1,.465-1.14l-1.72-1.741L21.71,4.2l1.729,1.729a7.013,7.013,0,0,1,1.112-.459V3.062h4.268V5.471a7.01,7.01,0,0,1,1.112.462L31.66,4.206l3.016,3.021L32.955,8.958a5.185,5.185,0,0,1,.466,1.14h2.433v4.269ZM32,15.578l.168-.257a4.179,4.179,0,0,0,.589-1.408l.064-.3H35.1V10.848H32.823l-.063-.3a4.416,4.416,0,0,0-.592-1.45l-.16-.252,1.61-1.621L31.659,5.267l-1.6,1.6-.249-.143a6.237,6.237,0,0,0-1.465-.608l-.276-.075V3.812H25.3V6.038l-.277.075a6.286,6.286,0,0,0-1.466.605l-.248.142-1.6-1.6L19.751,7.22l1.61,1.629L21.2,9.1a4.416,4.416,0,0,0-.592,1.45l-.063.3H18.265v2.769h2.281l.064.3a4.179,4.179,0,0,0,.589,1.408l.167.256-1.612,1.6,1.956,1.952,1.6-1.6.249.142a6.3,6.3,0,0,0,1.466.6l.277.075v2.3h2.768v-2.3l.276-.075a6.292,6.292,0,0,0,1.466-.607l.248-.142,1.6,1.6,1.956-1.956Zm-2.48-3.345A2.838,2.838,0,1,1,26.685,9.4,2.841,2.841,0,0,1,29.523,12.233Zm-.75,0a2.088,2.088,0,1,0-2.088,2.087A2.09,2.09,0,0,0,28.773,12.233Z" transform="translate(-1.671 -3.062)" fill="#FFFFFF"></path></svg>