<svg xmlns:xlink="http://www.w3.org/1999/xlink" xmlns="http://www.w3.org/2000/svg" width="25.292" height="27.791" viewBox="0 0 25.292 27.791"><path d="M-66.38-179.725l5.184-8.98a5.923,5.923,0,0,0,0-5.986,5.924,5.924,0,0,0-5.184-2.994,5.925,5.925,0,0,0-5.185,2.994,5.923,5.923,0,0,0,0,5.986Zm-4.536-14.591a5.184,5.184,0,0,1,4.536-2.619,5.184,5.184,0,0,1,4.535,2.619,5.185,5.185,0,0,1,0,5.236l-4.535,7.855-4.536-7.855A5.185,5.185,0,0,1-70.916-194.316Zm4.586,5.749a2.512,2.512,0,0,0,2.509-2.51,2.512,2.512,0,0,0-2.509-2.509,2.512,2.512,0,0,0-2.509,2.509A2.513,2.513,0,0,0-66.33-188.567Zm0-4.269a1.762,1.762,0,0,1,1.759,1.759,1.762,1.762,0,0,1-1.759,1.76,1.762,1.762,0,0,1-1.759-1.76A1.762,1.762,0,0,1-66.33-192.836Zm5.915,7.439-.084-.365-.731.169.085.365a12,12,0,0,1,.308,2.688,11.909,11.909,0,0,1-11.9,11.9,11.8,11.8,0,0,1-5.014-1.124,11.524,11.524,0,0,0,1.224.4l.453.121.019-.468a3.257,3.257,0,0,1,.817-2.246l.086-.112a4.59,4.59,0,0,1,1.006-.93,4.873,4.873,0,0,0,1.487-1.575c.264-.447,1.066-1.805.5-2.839a1.187,1.187,0,0,0-.228-.3h0a3.572,3.572,0,0,0-1.738-.811l-.242-.06a3.021,3.021,0,0,1-1.306-.7,3.087,3.087,0,0,0-1.694-.792,2.363,2.363,0,0,0-.9.011,1.188,1.188,0,0,1-.562-.007c-.807-.168-2.18-.621-2.309-1.762a1.207,1.207,0,0,1,.1-.665.95.95,0,0,1,.924-.515c.365.041.584.334.9.813.071.1.14.209.211.307l.118.162.2-.009a.629.629,0,0,0,.446-.216.816.816,0,0,0,.2-.588,1.526,1.526,0,0,0-.133-.487l-.039-.081a.79.79,0,0,1,.036-.34c.041-.123.145-.178.41-.293a1.988,1.988,0,0,0,.779-.513,1.354,1.354,0,0,0,.3-1.054,1.279,1.279,0,0,1,.092-.651,1.463,1.463,0,0,1,.956-.691,1.434,1.434,0,0,0,1.037-.836,1.9,1.9,0,0,0-.564-1.714,3.652,3.652,0,0,0-2.816-1.428,1.231,1.231,0,0,0-.582.209,2.307,2.307,0,0,0-.519,1.283,5.216,5.216,0,0,1-.16.656,2.4,2.4,0,0,1-.918-.678q-.185-.185-.383-.36a11.829,11.829,0,0,1,7.144-2.9l.375-.021-.041-.749-.375.021A12.643,12.643,0,0,0-85.379-182.54a12.66,12.66,0,0,0,12.646,12.646A12.66,12.66,0,0,0-60.087-182.54,12.676,12.676,0,0,0-60.415-185.4Zm-18.132,4.315.07-.2a2.151,2.151,0,0,0,.352-.042,1.643,1.643,0,0,1,.649-.008,2.367,2.367,0,0,1,1.333.633,3.747,3.747,0,0,0,1.591.841l.254.062a2.883,2.883,0,0,1,1.4.631.443.443,0,0,1,.081.111c.24.438.076,1.144-.487,2.1a4.193,4.193,0,0,1-1.289,1.355,5.278,5.278,0,0,0-1.154,1.076l-.084.109a3.869,3.869,0,0,0-.937,2.2c-.194-.061-.388-.129-.582-.2a5.2,5.2,0,0,1-.193-1.871,12.615,12.615,0,0,1,.134-1.51,2.173,2.173,0,0,0-.194-1.665,2.131,2.131,0,0,0-.593-.6,1.436,1.436,0,0,1-.4-.39A2.971,2.971,0,0,1-78.547-181.082Zm-.523-8.6.226.025.127-.188a3.161,3.161,0,0,0,.377-1.146,2.619,2.619,0,0,1,.244-.841.842.842,0,0,1,.216-.053,2.939,2.939,0,0,1,2.146,1.165,1.326,1.326,0,0,1,.424,1.008c-.048.154-.242.233-.582.358a2.155,2.155,0,0,0-1.374,1.078,1.966,1.966,0,0,0-.162,1c.01.27.009.385-.118.534a1.338,1.338,0,0,1-.51.315,1.273,1.273,0,0,0-.823.742,1.506,1.506,0,0,0-.076.559,1.606,1.606,0,0,0-1.072-.626,1.707,1.707,0,0,0-1.679.929,1.94,1.94,0,0,0-.172,1.08,2.55,2.55,0,0,0,1.638,2.007,6.21,6.21,0,0,1-.987-.309,6.829,6.829,0,0,1-3.05-2.572A10.982,10.982,0,0,1-80.86-190.8c.059.057.117.116.175.174A2.658,2.658,0,0,0-79.07-189.681Zm-5.559,7.141a11.861,11.861,0,0,1,.066-1.228,7.4,7.4,0,0,0,3.052,2.415,7.06,7.06,0,0,0,2.1.5,3.308,3.308,0,0,0,.2,2.822,2.155,2.155,0,0,0,.574.572,1.416,1.416,0,0,1,.409.409c.187.287.168.506.079,1.154a13.636,13.636,0,0,0-.14,1.594,5.246,5.246,0,0,0,.326,2.35l.055.109A11.9,11.9,0,0,1-84.629-182.54Z" transform="translate(85.379 197.685)" fill="#FFFFFF"></path></svg>