<svg xmlns:xlink="http://www.w3.org/1999/xlink" xmlns="http://www.w3.org/2000/svg" width="33.841" height="29.698" viewBox="0 0 33.841 29.698"><path d="M-101.213-275.613V-298.07h-9.82v.75h9.07V-280.4H-134.3V-297.32h5.362v-.75h-6.112v22.457h12.922v3.286H-126.2v.75h16.144v-.75h-4.067v-3.286Zm-33.091-.75v-3.29h32.341v3.29h-19.419v-.015h-.75v.015Zm19.432,4.036h-6.51v-3.286h6.51ZM-129.238-289.4a9.41,9.41,0,0,0,4.384,5.775,9.413,9.413,0,0,0,4.763,1.3,9.536,9.536,0,0,0,2.42-.314,9.493,9.493,0,0,0,2.008-.781l.267-.14a6,6,0,0,0,3.275.972,6.042,6.042,0,0,0,6.036-6.035,6.043,6.043,0,0,0-4.925-5.929l-.05-.157a9.471,9.471,0,0,0-11.42-6.255,9.41,9.41,0,0,0-5.774,4.383A9.411,9.411,0,0,0-129.238-289.4Zm.726-.191a8.7,8.7,0,0,1-.274-2.662,5.812,5.812,0,0,0,2.224,1.583,5.708,5.708,0,0,0,1.618.4,2.66,2.66,0,0,0,.19,2.234,1.828,1.828,0,0,0,.478.477,1.047,1.047,0,0,1,.309.307c.135.209.121.365.052.873a10.76,10.76,0,0,0-.113,1.284,7.013,7.013,0,0,0,.045,1.083c-.165-.083-.332-.163-.493-.257A8.665,8.665,0,0,1-128.512-289.587Zm5.375,5.948a4.126,4.126,0,0,1-.141-1.437,10.206,10.206,0,0,1,.106-1.2,1.8,1.8,0,0,0-.166-1.384,1.8,1.8,0,0,0-.494-.5,1.076,1.076,0,0,1-.3-.3,2.315,2.315,0,0,1,.043-2.035l.021-.059a1.716,1.716,0,0,0,.282-.035,1.25,1.25,0,0,1,.491-.005,1.831,1.831,0,0,1,1.025.487,3.046,3.046,0,0,0,1.294.684l.2.05a2.131,2.131,0,0,1,1.132.552c.122.223.154.68-.386,1.594a3.224,3.224,0,0,1-1.006,1.055,4.253,4.253,0,0,0-.933.872l-.066.085a3.137,3.137,0,0,0-.749,1.7C-122.9-283.55-123.019-283.594-123.137-283.639Zm16.3-4.983a5.291,5.291,0,0,1-5.286,5.285,5.291,5.291,0,0,1-5.285-5.285,5.291,5.291,0,0,1,5.285-5.286A5.292,5.292,0,0,1-106.835-288.622Zm-15.454-11.616a8.718,8.718,0,0,1,10.453,5.6c-.1-.005-.189-.015-.285-.015a6.042,6.042,0,0,0-6.035,6.036,6.021,6.021,0,0,0,2.1,4.562,8.715,8.715,0,0,1-1.8.7,8.683,8.683,0,0,1-4.191.061,2.445,2.445,0,0,1,.612-1.451l.069-.089a3.609,3.609,0,0,1,.786-.726,4,4,0,0,0,1.2-1.275c.215-.365.87-1.473.4-2.335a.991.991,0,0,0-.2-.259,2.9,2.9,0,0,0-1.416-.662l-.193-.049a2.337,2.337,0,0,1-1.009-.539,2.559,2.559,0,0,0-1.386-.646,1.952,1.952,0,0,0-.74.009.862.862,0,0,1-.417-.006c-.622-.129-1.681-.475-1.777-1.335a.877.877,0,0,1,.071-.486.679.679,0,0,1,.659-.369c.124.014.212.128.371.367a1.566,1.566,0,0,0,.6.609.471.471,0,0,0,.475-.034.765.765,0,0,0,.291-.651,1.306,1.306,0,0,0-.111-.41l-.027-.049a.548.548,0,0,1,.026-.232c.022-.066.083-.1.284-.188a1.657,1.657,0,0,0,.648-.428,1.164,1.164,0,0,0,.257-.892.937.937,0,0,1,.066-.483,1.087,1.087,0,0,1,.717-.51,1.217,1.217,0,0,0,.872-.714,1.6,1.6,0,0,0-.419-1.474,2.3,2.3,0,0,0-1.94-.879,1.022,1.022,0,0,0-.506.186,4.874,4.874,0,0,0-.755,1.021.325.325,0,0,1-.211.146.275.275,0,0,1-.211-.043,3.352,3.352,0,0,1-.4-.365c-.037-.036-.077-.07-.114-.107A8.71,8.71,0,0,1-122.289-300.238Zm-5.318,4.037a8.749,8.749,0,0,1,1.56-1.959c.051.049.1.1.154.146a4.178,4.178,0,0,0,.493.443,1.011,1.011,0,0,0,.8.171,1.073,1.073,0,0,0,.7-.487,5.669,5.669,0,0,1,.569-.822.5.5,0,0,1,.148-.035,1.558,1.558,0,0,1,1.271.616.934.934,0,0,1,.279.768c-.027.086-.176.147-.417.236a1.78,1.78,0,0,0-1.137.9,1.67,1.67,0,0,0-.136.829c.008.207.007.277-.075.373a1,1,0,0,1-.378.23,1.087,1.087,0,0,0-.7.637,1.244,1.244,0,0,0-.066.38,1.1,1.1,0,0,0-.767-.486,1.426,1.426,0,0,0-1.414.783,1.623,1.623,0,0,0-.143.9,1.875,1.875,0,0,0,.7,1.255c-.037-.014-.077-.02-.114-.034a5.156,5.156,0,0,1-2.382-1.958A8.711,8.711,0,0,1-127.607-296.2Zm13.793,11,4.717-3.329-4.717-3.329Zm.75-5.211,2.666,1.882-2.666,1.881Z" transform="translate(135.054 301.275)" fill="#FFFFFF"></path></svg>