<svg xmlns:xlink="http://www.w3.org/1999/xlink" xmlns="http://www.w3.org/2000/svg" width="101.25" height="92.2" viewBox="0 0 101.25 92.2"><g transform="translate(-1080.308 -45.039)"><path d="M1179.218,61.508a1.539,1.539,0,0,1,1.09,1.47v48.19a1.516,1.516,0,0,1-.53,1.16,1.485,1.485,0,0,1-1.01.38h-27.24" fill="none" stroke="#FFFFFF" stroke-linecap="round" stroke-linejoin="round" stroke-width="2.5px"></path><path d="M1111.628,61.438h67.14a.9.9,0,0,1,.23.02" fill="none" stroke="#FFFFFF" stroke-linecap="round" stroke-linejoin="round" stroke-width="2.5px"></path><path d="M1180.307,112.709l-.528-.383L1145.6,87.542" fill="none" stroke="#FFFFFF" stroke-linejoin="round" stroke-width="2.5px"></path><line x1="15.93" y2="11.74" transform="translate(1117.018 87.638)" fill="none" stroke="#FFFFFF" stroke-linejoin="round" stroke-width="2.5px"></line><path d="M1179.218,61.508l-33.62,26.03-6.46,5-6.19-4.9-24.7-19.56a11.369,11.369,0,0,0,3.33-6.34l67.42-.28A.586.586,0,0,1,1179.218,61.508Z" fill="none" stroke="#FFFFFF" stroke-linejoin="round" stroke-width="2.5px" fill-rule="evenodd"></path><path d="M1179.283,61.454l-.063.049a1.306,1.306,0,0,0-.225-.049Z" fill="none" stroke="#FFFFFF" stroke-linejoin="round" stroke-width="2.5px" fill-rule="evenodd"></path><g fill="none" stroke-miterlimit="10"><path d="M1149.778,123.8c-.76,4.35-3.53,12.62-13.53,13.39a8,8,0,0,1-.99.05c-3.36,0-7.72-1.57-12.54-4.53-.68-.41-1.38-.86-2.08-1.33-.44-.3-.87-.6-1.31-.91q-1.32-.945-2.67-2.01a84.808,84.808,0,0,1-6.82-6.04c-.92-.9-1.84-1.84-2.75-2.82s-1.82-1.98-2.73-3.03q-1.41-1.65-2.81-3.4c-.32-.4-.64-.81-.96-1.22-.44-.57-.87-1.14-1.29-1.72-1.41-1.88-2.77-3.85-4.1-5.9-13.57-20.96-17.54-41.52-13.23-50.43a3.812,3.812,0,0,1,.37-.61,21.568,21.568,0,0,1,5.17-5.29c.32-.23.64-.43.96-.63s.63-.37.94-.53l.48-.24c.31-.15.62-.28.92-.41h.01c.31-.13.61-.24.91-.34h.01c.3-.1.6-.19.89-.27s.58-.15.87-.21h.01q.42-.09.84-.15h.01a12.972,12.972,0,0,1,1.59-.16c.25-.01.51-.02.75-.02.15,0,.3,0,.45.01.29.01.56.02.83.04.14.01.26.03.39.04a3.983,3.983,0,0,1,3.45,3.15l2.44,11.18a3.977,3.977,0,0,1-.24,2.44,3.536,3.536,0,0,1-.16.34,4.057,4.057,0,0,1-1.43,1.51,1.479,1.479,0,0,1-.13.08c-.91.56-1.96,1.23-3,1.93-2.05,1.39-4.01,2.89-4.56,3.88-.99,1.8-1.6,4.89,4.56,15.97,1.67,3.02,3.86,6.63,6.67,10.98,1.89,2.92,3.58,5.45,5.1,7.64a100.3,100.3,0,0,0,6.79,8.94c4.1,4.66,6.24,5.22,8.5,5.32h.16c1.57,0,3.69-.96,5.66-2.11.4-.23.78-.46,1.16-.7.75-.48,1.46-.96,2.08-1.39a4.037,4.037,0,0,1,4.63-.04l8.04,5.52A4.039,4.039,0,0,1,1149.778,123.8Z" stroke="none" fill="none"></path><path d="M 1135.258056640625 134.7389984130859 C 1135.558471679688 134.7389984130859 1135.768188476562 134.7295227050781 1135.93798828125 134.7082977294922 L 1135.996948242188 134.700927734375 L 1136.05615234375 134.6963806152344 C 1138.023315429688 134.5449066162109 1139.767578125 134.0445098876953 1141.240600585938 133.2090759277344 C 1142.48583984375 132.5028686523438 1143.575805664062 131.5353088378906 1144.48046875 130.3332672119141 C 1146.22216796875 128.0188293457031 1146.9833984375 125.2684555053711 1147.315307617188 123.3687286376953 L 1147.317260742188 123.357292175293 C 1147.421875 122.774658203125 1147.16748046875 122.1746444702148 1146.6689453125 121.8272323608398 L 1138.637329101562 116.3129806518555 C 1138.372924804688 116.1337356567383 1138.072387695312 116.0390014648438 1137.767944335938 116.0390014648438 C 1137.4462890625 116.0390014648438 1137.127685546875 116.1399993896484 1136.870971679688 116.3234024047852 L 1136.8427734375 116.3432693481445 C 1136.088623046875 116.8662567138672 1135.362915039062 117.3512191772461 1134.685668945312 117.7846755981445 L 1134.672973632812 117.7927474975586 C 1134.2529296875 118.057991027832 1133.846557617188 118.3033065795898 1133.430541992188 118.5426254272461 C 1130.60888671875 120.1888198852539 1128.347778320312 120.9889984130859 1126.517944335938 120.9889984130859 L 1126.24755859375 120.9865646362305 C 1123.05712890625 120.8453826904297 1120.3544921875 119.7911605834961 1115.980590820312 114.8197784423828 C 1114.0185546875 112.5883255004883 1111.7392578125 109.589599609375 1109.01416015625 105.6544876098633 C 1107.475341796875 103.437385559082 1105.744384765625 100.8443603515625 1103.868041992188 97.94554901123047 C 1101.042358398438 93.57135009765625 1098.832641601562 89.93319702148438 1097.112915039062 86.82378387451172 C 1094.214721679688 81.61068725585938 1092.505859375 77.62903594970703 1091.888793945312 74.65130615234375 C 1091.366333007812 72.12996673583984 1091.569458007812 70.21254730224609 1092.547485351562 68.43421936035156 L 1092.552612304688 68.42501831054688 C 1093.01416015625 67.59394836425781 1094.038696289062 66.30467224121094 1097.894897460938 63.68983459472656 L 1097.902099609375 63.68500137329102 C 1099.139282226562 62.85232543945312 1100.262939453125 62.14585494995117 1100.98779296875 61.69983673095703 L 1101.012451171875 61.68485260009766 C 1101.019165039062 61.68080902099609 1101.02587890625 61.67684936523438 1101.032348632812 61.67296981811523 L 1101.106079101562 61.62707138061523 C 1101.343505859375 61.47919845581055 1101.534790039062 61.27936172485352 1101.659301757812 61.04919815063477 L 1101.662719726562 61.0429801940918 C 1101.669799804688 61.0300178527832 1101.683715820312 61.00139999389648 1101.709716796875 60.93865585327148 L 1101.729736328125 60.89196395874023 C 1101.851684570312 60.61483001708984 1101.880981445312 60.30213928222656 1101.814453125 59.98732376098633 L 1099.37353515625 48.80281829833984 C 1099.23681640625 48.16498947143555 1098.737426757812 47.69123840332031 1098.127197265625 47.61761474609375 C 1098.036376953125 47.6097297668457 1097.95849609375 47.60055541992188 1097.89404296875 47.59296417236328 C 1097.857543945312 47.58867263793945 1097.816162109375 47.58381652832031 1097.799926757812 47.5826530456543 L 1097.793334960938 47.5821647644043 C 1097.572631835938 47.56581878662109 1097.34130859375 47.55714416503906 1097.061767578125 47.54750823974609 L 1096.981567382812 47.54345321655273 C 1096.914794921875 47.53900146484375 1096.809448242188 47.53900146484375 1096.697998046875 47.53900146484375 C 1096.497924804688 47.53900146484375 1096.248413085938 47.54898071289062 1096.046020507812 47.55707168579102 C 1095.61376953125 47.57403564453125 1095.181640625 47.61747360229492 1094.761840820312 47.68618011474609 L 1094.561279296875 47.71900177001953 L 1094.536010742188 47.71900177001953 C 1094.3681640625 47.74597930908203 1094.19921875 47.77762603759766 1094.031982421875 47.81347274780273 L 1093.767211914062 47.86899948120117 C 1093.609130859375 47.9053840637207 1093.450317382812 47.94553756713867 1093.292846679688 47.98899841308594 C 1093.026733398438 48.06238174438477 1092.769653320312 48.14032745361328 1092.52880859375 48.22065353393555 L 1092.2548828125 48.31196594238281 C 1092.090698242188 48.37104797363281 1091.935180664062 48.43142318725586 1091.78466796875 48.49454498291016 L 1091.452392578125 48.63386154174805 C 1091.291381835938 48.70375061035156 1091.137329101562 48.77215194702148 1090.99072265625 48.84271240234375 L 1090.541381835938 49.06734466552734 C 1090.289306640625 49.19790649414062 1090.027587890625 49.3455924987793 1089.782836914062 49.49533081054688 C 1089.4931640625 49.67636489868164 1089.219482421875 49.84767150878906 1088.96728515625 50.02892684936523 L 1088.945678710938 50.04432678222656 C 1087.2919921875 51.20656204223633 1085.755981445312 52.78352737426758 1084.380004882812 54.73141860961914 L 1084.3505859375 54.77212905883789 C 1084.273559570312 54.87656402587891 1084.235229492188 54.95280075073242 1084.225219726562 54.97367095947266 L 1084.218505859375 54.98765563964844 C 1082.305053710938 58.94321823120117 1082.337646484375 65.87534332275391 1084.307739257812 74.00656127929688 C 1085.382446289062 78.44254302978516 1086.990478515625 83.10025787353516 1089.087036132812 87.85031127929688 C 1091.33203125 92.93670654296875 1094.094116210938 98.02381896972656 1097.295288085938 102.9683609008789 C 1098.665771484375 105.0808181762695 1099.97509765625 106.9651260375977 1101.297973632812 108.7289810180664 L 1101.32275390625 108.7626342773438 C 1101.692504882812 109.2732315063477 1102.098266601562 109.8141403198242 1102.56298828125 110.4161224365234 C 1102.86962890625 110.8090896606445 1103.1865234375 111.2152557373047 1103.500244140625 111.6073608398438 L 1103.505004882812 111.6133422851562 C 1104.341186523438 112.6652221679688 1105.239624023438 113.7523727416992 1106.251586914062 114.9367218017578 C 1107.133911132812 115.954719543457 1108.02880859375 116.9478607177734 1108.911254882812 117.8884887695312 L 1108.919921875 117.897834777832 C 1109.7666015625 118.8096160888672 1110.663696289062 119.7294692993164 1111.586181640625 120.6318511962891 L 1111.590087890625 120.6357116699219 C 1113.772216796875 122.779670715332 1115.998779296875 124.7518539428711 1118.206298828125 126.4962158203125 C 1119.068969726562 127.1767044067383 1119.93310546875 127.8274002075195 1120.775024414062 128.4303741455078 C 1121.259643554688 128.7717437744141 1121.661499023438 129.0510101318359 1122.038696289062 129.3082427978516 C 1122.738403320312 129.7778930664062 1123.401245117188 130.2017059326172 1124.0087890625 130.5679931640625 L 1124.026245117188 130.5786590576172 C 1128.394897460938 133.2614898681641 1132.3837890625 134.7389984130859 1135.258056640625 134.7389984130859 M 1135.258056640625 137.2389984130859 C 1131.89794921875 137.2389984130859 1127.537963867188 135.6690063476562 1122.718017578125 132.7089996337891 C 1122.037963867188 132.2989959716797 1121.338012695312 131.8489990234375 1120.637939453125 131.3789978027344 C 1120.197998046875 131.0789947509766 1119.767944335938 130.7790222167969 1119.328002929688 130.468994140625 C 1118.447998046875 129.8390045166016 1117.557983398438 129.1690063476562 1116.657958984375 128.4589996337891 C 1114.41796875 126.6890029907227 1112.128051757812 124.6689987182617 1109.838012695312 122.4189987182617 C 1108.91796875 121.5189971923828 1107.998046875 120.5790023803711 1107.088012695312 119.5989990234375 C 1106.177978515625 118.6289978027344 1105.267944335938 117.6190032958984 1104.358032226562 116.5690002441406 C 1103.41796875 115.4690017700195 1102.47802734375 114.338996887207 1101.547973632812 113.1689987182617 C 1101.22802734375 112.7689971923828 1100.907958984375 112.359001159668 1100.588012695312 111.9489974975586 C 1100.14794921875 111.3789978027344 1099.718017578125 110.8089981079102 1099.297973632812 110.2289962768555 C 1097.887939453125 108.3489990234375 1096.527954101562 106.3789978027344 1095.197998046875 104.3290023803711 C 1081.628051757812 83.36900329589844 1077.657958984375 62.80899810791016 1081.968017578125 53.89899826049805 C 1082.067993164062 53.68899917602539 1082.197998046875 53.47900009155273 1082.338012695312 53.28900146484375 C 1083.998046875 50.93899917602539 1085.758056640625 49.22900009155273 1087.508056640625 47.99900054931641 C 1087.828002929688 47.76900100708008 1088.14794921875 47.56900024414062 1088.468017578125 47.36899948120117 C 1088.777954101562 47.17900085449219 1089.098022460938 46.99900054931641 1089.407958984375 46.8390007019043 C 1089.567993164062 46.75899887084961 1089.72802734375 46.67900085449219 1089.887939453125 46.5989990234375 C 1090.197998046875 46.44900131225586 1090.508056640625 46.31900024414062 1090.807983398438 46.18899917602539 L 1090.817993164062 46.18899917602539 C 1091.128051757812 46.05899810791016 1091.427978515625 45.94900131225586 1091.72802734375 45.8489990234375 L 1091.738037109375 45.8489990234375 C 1092.037963867188 45.74900054931641 1092.338012695312 45.65900039672852 1092.628051757812 45.57899856567383 C 1092.91796875 45.49900054931641 1093.2080078125 45.42900085449219 1093.498046875 45.36899948120117 L 1093.508056640625 45.36899948120117 C 1093.787963867188 45.30899810791016 1094.067993164062 45.25899887084961 1094.348022460938 45.21900177001953 L 1094.358032226562 45.21900177001953 C 1094.907958984375 45.12900161743164 1095.43798828125 45.07899856567383 1095.947998046875 45.05899810791016 C 1096.197998046875 45.04899978637695 1096.4580078125 45.03900146484375 1096.697998046875 45.03900146484375 C 1096.848022460938 45.03900146484375 1096.998046875 45.03900146484375 1097.14794921875 45.04899978637695 C 1097.43798828125 45.05899810791016 1097.7080078125 45.06900024414062 1097.97802734375 45.0890007019043 C 1098.118041992188 45.0989990234375 1098.238037109375 45.11899948120117 1098.368041992188 45.12900161743164 C 1100.078002929688 45.30899810791016 1101.4580078125 46.5989990234375 1101.817993164062 48.27899932861328 L 1104.258056640625 59.45899963378906 C 1104.43798828125 60.29899978637695 1104.348022460938 61.14899826049805 1104.017944335938 61.89899826049805 C 1103.968017578125 62.01900100708008 1103.91796875 62.12900161743164 1103.858032226562 62.23899841308594 C 1103.527954101562 62.8489990234375 1103.037963867188 63.36899948120117 1102.427978515625 63.74900054931641 C 1102.387939453125 63.77899932861328 1102.348022460938 63.79899978637695 1102.297973632812 63.82899856567383 C 1101.387939453125 64.38899993896484 1100.338012695312 65.05899810791016 1099.297973632812 65.75900268554688 C 1097.248046875 67.14900207519531 1095.287963867188 68.64900207519531 1094.738037109375 69.63899993896484 C 1093.748046875 71.43900299072266 1093.137939453125 74.52899932861328 1099.297973632812 85.60900115966797 C 1100.968017578125 88.62899780273438 1103.157958984375 92.23899841308594 1105.968017578125 96.58899688720703 C 1107.858032226562 99.50900268554688 1109.547973632812 102.0390014648438 1111.067993164062 104.2289962768555 C 1113.838012695312 108.2289962768555 1116.037963867188 111.0989990234375 1117.858032226562 113.1689987182617 C 1121.9580078125 117.8290023803711 1124.098022460938 118.3889999389648 1126.358032226562 118.4889984130859 L 1126.517944335938 118.4889984130859 C 1128.088012695312 118.4889984130859 1130.2080078125 117.5289993286133 1132.177978515625 116.3789978027344 C 1132.578002929688 116.1490020751953 1132.9580078125 115.9189987182617 1133.338012695312 115.6790008544922 C 1134.088012695312 115.1989974975586 1134.797973632812 114.7190017700195 1135.41796875 114.2890014648438 C 1136.118041992188 113.7890014648438 1136.947998046875 113.5390014648438 1137.767944335938 113.5390014648438 C 1138.567993164062 113.5390014648438 1139.358032226562 113.7789993286133 1140.047973632812 114.2490005493164 L 1148.088012695312 119.7689971923828 C 1149.387939453125 120.6689987182617 1150.057983398438 122.2389984130859 1149.777954101562 123.7990036010742 C 1149.017944335938 128.1490020751953 1146.248046875 136.4190063476562 1136.248046875 137.1889953613281 C 1135.927978515625 137.22900390625 1135.598022460938 137.2389984130859 1135.258056640625 137.2389984130859 Z" stroke="none" fill="#FFFFFF"></path></g></g></svg>