<svg xmlns:xlink="http://www.w3.org/1999/xlink" xmlns="http://www.w3.org/2000/svg" width="33.621" height="34.917" viewBox="0 0 33.621 34.917"><path d="M-52.713-284.107v-6h-2.7a11.314,11.314,0,0,0-1.264-2.974l1.746-2.014-3.778-3.87-2.078,1.682a11.437,11.437,0,0,0-3.029-1.291l-.022-2.653h-4.576v-2.242h-.75v33.361h.75v-2.242h4.577l.019-3.046a11.455,11.455,0,0,0,3.014-1.281l2.077,1.907,3.782-3.873-1.747-2.24a12.844,12.844,0,0,0,1.283-3.24Zm-15.7-5.935h1.451a2.9,2.9,0,0,1,2.733,3.06,2.967,2.967,0,0,1-3.081,2.732h-1.1Zm12.342,5.464a12.1,12.1,0,0,1-1.394,3.537l-.13.22,1.656,2.125-2.815,2.884-1.965-1.8-.243.156a10.709,10.709,0,0,1-3.314,1.409l-.287.068-.018,2.885h-3.832v-10.4H-67.3a3.7,3.7,0,0,0,3.824-3.44,3.66,3.66,0,0,0-3.46-3.852h-1.473v-9.683h3.832l.021,2.492.285.068a10.732,10.732,0,0,1,3.315,1.409l.228.147,1.964-1.592,2.82,2.888-1.659,1.913.151.236a10.617,10.617,0,0,1,1.387,3.27l.068.289h2.537v4.494L-56-284.874Zm-2.53-2.535a8.1,8.1,0,0,1-8.093,8.093v-.75a7.351,7.351,0,0,0,7.343-7.343,7.351,7.351,0,0,0-7.343-7.344v-.75A8.1,8.1,0,0,1-58.6-287.113Zm-16.714-9.563h4.393v-4.549h-4.393Zm.75-3.8h2.893v3.049h-2.893Zm-.75,9.882h4.393v-4.549h-4.393Zm.75-3.8h2.893v3.049h-2.893Zm-.75,15.988h4.393v-4.549h-4.393Zm.75-3.8h2.893v3.049h-2.893Zm-.75,9.869h4.393v-4.549h-4.393Zm.75-3.8h2.893v3.049h-2.893Zm-11.77-14.46h4.393v-4.549h-4.393Zm.75-3.8h2.893v3.049h-2.893Zm-.75,15.988h4.393v-4.549h-4.393Zm.75-3.8h2.893v3.049h-2.893Zm4.715-17.843h4.392V-304.6h-4.392Zm.75-3.8h2.892v3.049h-2.892Zm-.75,9.883h4.392v-4.549h-4.392Zm.75-3.8h2.892v3.049h-2.892Zm-.75,9.877h4.392v-4.549h-4.392Zm.75-3.8h2.892v3.049h-2.892Zm-.75,9.909h4.392v-4.549h-4.392Zm.75-3.8h2.892v3.049h-2.892Zm-.75,9.869h4.392v-4.549h-4.392Zm.75-3.8h2.892v3.049h-2.892Zm-.75,9.825h4.392v-4.549h-4.392Zm.75-3.8h2.892v3.049h-2.892Z" transform="translate(86.334 304.595)" fill="#FFFFFF"></path></svg>