<svg xmlns:xlink="http://www.w3.org/1999/xlink" xmlns="http://www.w3.org/2000/svg" width="33.629" height="34.447" viewBox="0 0 33.629 34.447"><path d="M-106.965,68.384a17.042,17.042,0,0,0-16.813-17.223h0a17.041,17.041,0,0,0-16.814,17.223A17.041,17.041,0,0,0-123.78,85.608h0A17.042,17.042,0,0,0-106.965,68.384Zm-8.82,6.318a32.874,32.874,0,0,0,.591-5.943h7.46a16.618,16.618,0,0,1-3.9,10.38,18.245,18.245,0,0,0-2.28-1.041,3.159,3.159,0,0,0,.051-.519A3.1,3.1,0,0,0-115.785,74.7Zm.59-6.693a30.769,30.769,0,0,0-1.25-8.555,20.761,20.761,0,0,0,4.81-1.821,16.62,16.62,0,0,1,3.9,10.376Zm-1.706,6.469a3.039,3.039,0,0,0-2.891,2.206,31.815,31.815,0,0,0-3.613-.239V68.759h7.461a32.235,32.235,0,0,1-.569,5.759A2.931,2.931,0,0,0-116.9,74.478Zm.957-6.469H-123.4V63.022a3.058,3.058,0,0,0,2.639-2.834,29.381,29.381,0,0,0,3.619-.559A30.581,30.581,0,0,1-115.944,68.009Zm-7.835-10.4a2.321,2.321,0,0,1,2.286,2.35,2.322,2.322,0,0,1-2.286,2.351,2.322,2.322,0,0,1-2.285-2.351A2.321,2.321,0,0,1-123.779,57.61Zm2.984,1.827A3.057,3.057,0,0,0-123.4,56.9V51.95c2.491.249,4.679,2.936,6.032,6.961A28.445,28.445,0,0,1-120.795,59.437Zm-3.36-2.538a3.055,3.055,0,0,0-2.607,2.539,28.511,28.511,0,0,1-3.416-.527c1.367-4.041,3.57-6.713,6.023-6.964Zm-2.636,3.29a3.058,3.058,0,0,0,2.636,2.833v4.987H-129a3.061,3.061,0,0,0-2.479-2.672,28.741,28.741,0,0,1,1.075-5.708A29.315,29.315,0,0,0-126.791,60.189ZM-132,70.736a2.322,2.322,0,0,1-2.285-2.352A2.322,2.322,0,0,1-132,66.033a2.322,2.322,0,0,1,2.285,2.351A2.322,2.322,0,0,1-132,70.736Zm-.232-5.429a3.05,3.05,0,0,0-2.766,2.7h-4.829a16.624,16.624,0,0,1,3.9-10.377,20.683,20.683,0,0,0,4.781,1.814A29.76,29.76,0,0,0-132.231,65.307ZM-135,68.759a3.05,3.05,0,0,0,2.766,2.7,29.65,29.65,0,0,0,1.09,5.866,20.683,20.683,0,0,0-4.782,1.81,16.626,16.626,0,0,1-3.9-10.379Zm3.516,2.673A3.062,3.062,0,0,0-129,68.759h4.847v7.685a30.528,30.528,0,0,0-6.249.7A28.728,28.728,0,0,1-131.481,71.432Zm7.326,5.762v7.628c-2.451-.251-4.654-2.921-6.022-6.959A29.9,29.9,0,0,1-124.155,77.194Zm.75,0a31.18,31.18,0,0,1,3.484.23c0,.052-.016.1-.016.154a3.1,3.1,0,0,0,1.552,2.689c-1.369,2.732-3.161,4.355-5.02,4.549Zm4.218.384a2.322,2.322,0,0,1,2.286-2.351,2.321,2.321,0,0,1,2.284,2.351,2.322,2.322,0,0,1-2.284,2.352A2.322,2.322,0,0,1-119.187,77.579Zm7.04-20.523a20.25,20.25,0,0,1-4.517,1.68,13.24,13.24,0,0,0-4.211-6.542A15.925,15.925,0,0,1-112.147,57.056Zm-14.614-4.85a13.068,13.068,0,0,0-4.165,6.522,20.141,20.141,0,0,1-4.486-1.673A15.922,15.922,0,0,1-126.761,52.206Zm-8.649,27.511a20.139,20.139,0,0,1,4.485-1.672,13.083,13.083,0,0,0,4.164,6.518A15.935,15.935,0,0,1-135.41,79.717Zm14.588,4.849a10.737,10.737,0,0,0,3.129-4.006,2.924,2.924,0,0,0,.792.121,3.033,3.033,0,0,0,2.775-1.858,17.654,17.654,0,0,1,1.975.9A15.925,15.925,0,0,1-120.822,84.566Z" transform="translate(140.594 -51.161)" fill="#FFFFFF"></path></svg>