<svg xmlns:xlink="http://www.w3.org/1999/xlink" xmlns="http://www.w3.org/2000/svg" width="34.903" height="32.079" viewBox="0 0 34.903 32.079"><path d="M21.194-339.617l6.8-6.8a4.169,4.169,0,0,0,1.183-3.731,4.253,4.253,0,0,0-2.55-3.141,4.133,4.133,0,0,0-4.528.973l-.894.894-.9-.9a4.176,4.176,0,0,0-5.9.059,4.2,4.2,0,0,0,0,5.841Zm-6.254-12.12a3.414,3.414,0,0,1,2.445-1.026,3.4,3.4,0,0,1,2.39.974l1.425,1.424,1.424-1.424-.265-.266.265.265a3.389,3.389,0,0,1,3.7-.816,3.515,3.515,0,0,1,2.114,2.589,3.421,3.421,0,0,1-.973,3.064l-6.267,6.274-6.253-6.27A3.439,3.439,0,0,1,14.94-351.737Zm23.1,14.6a2.451,2.451,0,0,0-2.95-.51L30.5-335.2a2.349,2.349,0,0,0-.438-.673,2.331,2.331,0,0,0-1.707-.733H21.936a2.293,2.293,0,0,1-1.167-.326,8.276,8.276,0,0,0-4.285-.994c-4.479,0-7.561,3.336-8,3.833l-.895-.914-3.87,3.641,9.5,9.846,3.885-3.764-.883-.9a1.859,1.859,0,0,1,1.19-.437h7.441a5.643,5.643,0,0,0,3.007-.866l9.637-6.054a2.379,2.379,0,0,0,1.1-1.665A2.4,2.4,0,0,0,38.036-337.137ZM13.243-322.586,4.79-331.344l2.782-2.618,8.474,8.661Zm24.614-12.738a1.628,1.628,0,0,1-.753,1.141l-9.638,6.055a4.893,4.893,0,0,1-2.608.751H17.417a2.6,2.6,0,0,0-1.714.652l-6.688-6.834c.065-.076,3.114-3.621,7.469-3.621a7.607,7.607,0,0,1,3.9.888,3.032,3.032,0,0,0,1.55.432h6.421a1.587,1.587,0,0,1,1.163.5,1.588,1.588,0,0,1,.438,1.19,1.685,1.685,0,0,1-1.713,1.517H19.408v.75h8.837a2.442,2.442,0,0,0,2.462-2.228,2.321,2.321,0,0,0-.015-.324l4.741-2.527a1.691,1.691,0,0,1,2.036.335A1.624,1.624,0,0,1,37.857-335.324Zm-30.71,3.415,2.18,2.35-.55.51L6.6-331.4Z" transform="translate(-3.723 353.603)" fill="#FFFFFF"></path></svg>