<svg xmlns:xlink="http://www.w3.org/1999/xlink" xmlns="http://www.w3.org/2000/svg" width="33.841" height="32.066" viewBox="0 0 33.841 32.066"><path d="M-127.368-246.216h5.389v-5.289H-109.2v21h.75v-21.749h-14.674l-4.991,4.991v16.758h.75Zm4.552-5.289h.087v4.539h-4.626Zm10.071,9.563h-11.236v-.75h11.236Zm0,4.4h-11.236v-.75h11.236Zm-11.236,3.652h11.236v.75h-11.236Zm22.539,9.487v-22.457h-6.113v.75h5.363v16.917h-32.341v-16.917h5.362v-.75h-6.112V-224.4h12.922v3.463h-4.067v.75h16.144v-.75h-4.067V-224.4Zm-33.091-.75v-3.29h32.341v3.29h-19.419v-.014h-.75v.014Zm19.432,4.213h-6.51V-224.4h6.51Z" transform="translate(135.283 252.255)" fill="#FFFFFF"></path></svg>