<svg xmlns:xlink="http://www.w3.org/1999/xlink" xmlns="http://www.w3.org/2000/svg" width="36" height="36" viewBox="0 0 36 36"><g transform="translate(0 0)"><g transform="translate(0 0)" fill="none" stroke="#80ACD3" stroke-width="1"><circle cx="18" cy="18" r="18" stroke="none" fill-opacity="0" fill="#000000"></circle><circle cx="18" cy="18" r="17.5" fill="#000000" stroke="#80ACD3" fill-opacity="0"></circle></g><path d="M16.017,11.651l-3.607-1.546a.773.773,0,0,0-.9.222l-1.6,1.951A11.936,11.936,0,0,1,4.206,6.573l1.951-1.6a.771.771,0,0,0,.222-.9L4.834.468A.778.778,0,0,0,3.948.02L.6.793a.773.773,0,0,0-.6.753A14.94,14.94,0,0,0,14.942,16.488a.773.773,0,0,0,.754-.6l.773-3.349A.782.782,0,0,0,16.017,11.651Z" transform="translate(9.849 10.078)" fill="none" stroke="#FFFFFF" stroke-width="1"></path></g></svg>