<svg xmlns:xlink="http://www.w3.org/1999/xlink" id="Ebene_2" xmlns="http://www.w3.org/2000/svg" viewBox="0 0 102.38 128.69" width="102.38"  height="128.69" ><defs><style>.cls-1{fill:none;stroke:#fff;stroke-miterlimit:10;stroke-width:2.5px}</style></defs><g id="Ebene_1-2"><g><path class="cls-1" d="M43.8,39.68v9.5c-3.25,.25-8.51,.28-11.67-1.6-4.83-2.87-4.76-4.1-8.52-4.33s-8.86,4.98-13.56,5.1c-2.63,.06-6.19-1.65-8.8-3.18v-5.49c0-7.82,5.99-14.25,13.64-14.93v-8.29h-1.83c-.69,0-1.25-.56-1.25-1.25V7.57c0-.69,.56-1.25,1.25-1.25h19.29c.7,0,1.26,.56,1.26,1.25v7.64c0,.69-.56,1.25-1.26,1.25h-2.05v8.3c7.58,.74,13.5,7.14,13.5,14.92Z" stroke="#FFFFFF" fill="none" stroke-width="2.5px"></path><path class="cls-1" d="M43.8,49.18v37.48l-17.35,17.25H1.25V45.17c2.61,1.53,6.17,3.24,8.8,3.18,4.7-.12,9.8-5.33,13.56-5.1s3.69,1.46,8.52,4.33c3.16,1.88,8.42,1.85,11.67,1.6Z" stroke="#FFFFFF" fill="none" stroke-width="2.5px"></path><path class="cls-1" d="M87.46,18.75c-.17,4.86-4.25,8.67-9.11,8.5-1.36-.05-2.63-.4-3.76-.99l-6.9,11.65-14.98-8.68,6.69-11.84c-2.45-1.64-4.02-4.47-3.91-7.63,.17-4.87,4.25-8.67,9.11-8.5,4.86,.17,8.67,4.25,8.5,9.11-.02,.47-.07,.93-.15,1.37,1.61-1.38,3.72-2.18,6.01-2.1,4.87,.17,8.67,4.25,8.5,9.11Z" stroke="#FFFFFF" fill="none" stroke-width="2.5px"></path><path class="cls-1" d="M67.69,37.91l7.54,4.37s-9.84,10.71-10.41,20.28" stroke="#FFFFFF" fill="none" stroke-width="2.5px"></path><line class="cls-1" x1="52.71" y1="29.23" x2="42.61" y2="23.37" stroke="#FFFFFF" fill="none" stroke-width="2.5px"></line><polyline class="cls-1" points="90.06 46.41 84.86 51.61 71.48 65.01" stroke="#FFFFFF" fill="none" stroke-width="2.5px"></polyline><line class="cls-1" x1="62.02" y1="74.48" x2="48.53" y2="87.98" stroke="#FFFFFF" fill="none" stroke-width="2.5px"></line><polyline class="cls-1" points="39.05 97.46 24.82 111.71 18.67 117.86" stroke="#FFFFFF" fill="none" stroke-width="2.5px"></polyline><path class="cls-1" d="M68.82,84.52c0,5.91-4.67,10.71-10.43,10.71-4.58,0-8.46-3.03-9.86-7.25l13.49-13.5c3.97,1.51,6.8,5.43,6.8,10.04Z" stroke="#FFFFFF" fill="none" stroke-width="2.5px"></path><path class="cls-1" d="M81.47,84.52c0,13.09-10.33,23.7-23.08,23.7-8.09,0-15.22-4.28-19.34-10.76l9.48-9.48,13.49-13.5,9.46-9.47c6.04,4.26,9.99,11.41,9.99,19.51Z" stroke="#FFFFFF" fill="none" stroke-width="2.5px"></path><polyline class="cls-1" points="84.86 51.61 94.73 61.59 89.26 67.17 93.25 77.71 101.11 78.68 100.82 92.92 92.99 93.71 88.8 103.91 94.04 109.38 82.82 120.77 77.18 114.96 66.36 119.57 65.96 127.44 51.67 127.44 51.32 119.63 40.69 115.36 34.52 121.91 24.82 111.7" stroke="#FFFFFF" fill="none" stroke-width="2.5px"></polyline></g></g></svg>